<mxfile host="app.diagrams.net" agent="Mozilla/5.0 (Windows NT 10.0; Win64; x64) AppleWebKit/537.36 (KHTML, like Gecko) Chrome/131.0.0.0 Safari/537.36" version="25.0.3">
  <diagram name="Page-1" id="ecdVMZpopSZTI7isHenV">
    <mxGraphModel dx="792" dy="3435" grid="1" gridSize="10" guides="1" tooltips="1" connect="1" arrows="1" fold="1" page="1" pageScale="1" pageWidth="827" pageHeight="1169" math="0" shadow="0">
      <root>
        <mxCell id="0" />
        <mxCell id="1" parent="0" />
        <mxCell id="6jMnWPeVli86li3BOtDc-1" value="media" style="shape=table;startSize=30;container=1;collapsible=1;childLayout=tableLayout;fixedRows=1;rowLines=0;fontStyle=1;align=center;resizeLast=1;html=1;" parent="1" vertex="1">
          <mxGeometry x="1699" y="-1150" width="180" height="390" as="geometry" />
        </mxCell>
        <mxCell id="6jMnWPeVli86li3BOtDc-2" value="" style="shape=tableRow;horizontal=0;startSize=0;swimlaneHead=0;swimlaneBody=0;fillColor=none;collapsible=0;dropTarget=0;points=[[0,0.5],[1,0.5]];portConstraint=eastwest;top=0;left=0;right=0;bottom=1;" parent="6jMnWPeVli86li3BOtDc-1" vertex="1">
          <mxGeometry y="30" width="180" height="30" as="geometry" />
        </mxCell>
        <mxCell id="6jMnWPeVli86li3BOtDc-3" value="PK" style="shape=partialRectangle;connectable=0;fillColor=none;top=0;left=0;bottom=0;right=0;fontStyle=1;overflow=hidden;whiteSpace=wrap;html=1;" parent="6jMnWPeVli86li3BOtDc-2" vertex="1">
          <mxGeometry width="30" height="30" as="geometry">
            <mxRectangle width="30" height="30" as="alternateBounds" />
          </mxGeometry>
        </mxCell>
        <mxCell id="6jMnWPeVli86li3BOtDc-4" value="id" style="shape=partialRectangle;connectable=0;fillColor=none;top=0;left=0;bottom=0;right=0;align=left;spacingLeft=6;fontStyle=5;overflow=hidden;whiteSpace=wrap;html=1;" parent="6jMnWPeVli86li3BOtDc-2" vertex="1">
          <mxGeometry x="30" width="150" height="30" as="geometry">
            <mxRectangle width="150" height="30" as="alternateBounds" />
          </mxGeometry>
        </mxCell>
        <mxCell id="6jMnWPeVli86li3BOtDc-5" value="" style="shape=tableRow;horizontal=0;startSize=0;swimlaneHead=0;swimlaneBody=0;fillColor=none;collapsible=0;dropTarget=0;points=[[0,0.5],[1,0.5]];portConstraint=eastwest;top=0;left=0;right=0;bottom=0;" parent="6jMnWPeVli86li3BOtDc-1" vertex="1">
          <mxGeometry y="60" width="180" height="30" as="geometry" />
        </mxCell>
        <mxCell id="6jMnWPeVli86li3BOtDc-6" value="" style="shape=partialRectangle;connectable=0;fillColor=none;top=0;left=0;bottom=0;right=0;editable=1;overflow=hidden;whiteSpace=wrap;html=1;" parent="6jMnWPeVli86li3BOtDc-5" vertex="1">
          <mxGeometry width="30" height="30" as="geometry">
            <mxRectangle width="30" height="30" as="alternateBounds" />
          </mxGeometry>
        </mxCell>
        <mxCell id="6jMnWPeVli86li3BOtDc-7" value="title" style="shape=partialRectangle;connectable=0;fillColor=none;top=0;left=0;bottom=0;right=0;align=left;spacingLeft=6;overflow=hidden;whiteSpace=wrap;html=1;" parent="6jMnWPeVli86li3BOtDc-5" vertex="1">
          <mxGeometry x="30" width="150" height="30" as="geometry">
            <mxRectangle width="150" height="30" as="alternateBounds" />
          </mxGeometry>
        </mxCell>
        <mxCell id="6jMnWPeVli86li3BOtDc-8" value="" style="shape=tableRow;horizontal=0;startSize=0;swimlaneHead=0;swimlaneBody=0;fillColor=none;collapsible=0;dropTarget=0;points=[[0,0.5],[1,0.5]];portConstraint=eastwest;top=0;left=0;right=0;bottom=0;" parent="6jMnWPeVli86li3BOtDc-1" vertex="1">
          <mxGeometry y="90" width="180" height="30" as="geometry" />
        </mxCell>
        <mxCell id="6jMnWPeVli86li3BOtDc-9" value="" style="shape=partialRectangle;connectable=0;fillColor=none;top=0;left=0;bottom=0;right=0;editable=1;overflow=hidden;whiteSpace=wrap;html=1;" parent="6jMnWPeVli86li3BOtDc-8" vertex="1">
          <mxGeometry width="30" height="30" as="geometry">
            <mxRectangle width="30" height="30" as="alternateBounds" />
          </mxGeometry>
        </mxCell>
        <mxCell id="6jMnWPeVli86li3BOtDc-10" value="description" style="shape=partialRectangle;connectable=0;fillColor=none;top=0;left=0;bottom=0;right=0;align=left;spacingLeft=6;overflow=hidden;whiteSpace=wrap;html=1;" parent="6jMnWPeVli86li3BOtDc-8" vertex="1">
          <mxGeometry x="30" width="150" height="30" as="geometry">
            <mxRectangle width="150" height="30" as="alternateBounds" />
          </mxGeometry>
        </mxCell>
        <mxCell id="6jMnWPeVli86li3BOtDc-11" value="" style="shape=tableRow;horizontal=0;startSize=0;swimlaneHead=0;swimlaneBody=0;fillColor=none;collapsible=0;dropTarget=0;points=[[0,0.5],[1,0.5]];portConstraint=eastwest;top=0;left=0;right=0;bottom=0;" parent="6jMnWPeVli86li3BOtDc-1" vertex="1">
          <mxGeometry y="120" width="180" height="30" as="geometry" />
        </mxCell>
        <mxCell id="6jMnWPeVli86li3BOtDc-12" value="" style="shape=partialRectangle;connectable=0;fillColor=none;top=0;left=0;bottom=0;right=0;editable=1;overflow=hidden;whiteSpace=wrap;html=1;" parent="6jMnWPeVli86li3BOtDc-11" vertex="1">
          <mxGeometry width="30" height="30" as="geometry">
            <mxRectangle width="30" height="30" as="alternateBounds" />
          </mxGeometry>
        </mxCell>
        <mxCell id="6jMnWPeVli86li3BOtDc-13" value="release_date " style="shape=partialRectangle;connectable=0;fillColor=none;top=0;left=0;bottom=0;right=0;align=left;spacingLeft=6;overflow=hidden;whiteSpace=wrap;html=1;" parent="6jMnWPeVli86li3BOtDc-11" vertex="1">
          <mxGeometry x="30" width="150" height="30" as="geometry">
            <mxRectangle width="150" height="30" as="alternateBounds" />
          </mxGeometry>
        </mxCell>
        <mxCell id="6jMnWPeVli86li3BOtDc-14" value="" style="shape=tableRow;horizontal=0;startSize=0;swimlaneHead=0;swimlaneBody=0;fillColor=none;collapsible=0;dropTarget=0;points=[[0,0.5],[1,0.5]];portConstraint=eastwest;top=0;left=0;right=0;bottom=0;" parent="6jMnWPeVli86li3BOtDc-1" vertex="1">
          <mxGeometry y="150" width="180" height="30" as="geometry" />
        </mxCell>
        <mxCell id="6jMnWPeVli86li3BOtDc-15" value="" style="shape=partialRectangle;connectable=0;fillColor=none;top=0;left=0;bottom=0;right=0;editable=1;overflow=hidden;whiteSpace=wrap;html=1;" parent="6jMnWPeVli86li3BOtDc-14" vertex="1">
          <mxGeometry width="30" height="30" as="geometry">
            <mxRectangle width="30" height="30" as="alternateBounds" />
          </mxGeometry>
        </mxCell>
        <mxCell id="6jMnWPeVli86li3BOtDc-16" value="duration" style="shape=partialRectangle;connectable=0;fillColor=none;top=0;left=0;bottom=0;right=0;align=left;spacingLeft=6;overflow=hidden;whiteSpace=wrap;html=1;" parent="6jMnWPeVli86li3BOtDc-14" vertex="1">
          <mxGeometry x="30" width="150" height="30" as="geometry">
            <mxRectangle width="150" height="30" as="alternateBounds" />
          </mxGeometry>
        </mxCell>
        <mxCell id="6jMnWPeVli86li3BOtDc-17" value="" style="shape=tableRow;horizontal=0;startSize=0;swimlaneHead=0;swimlaneBody=0;fillColor=none;collapsible=0;dropTarget=0;points=[[0,0.5],[1,0.5]];portConstraint=eastwest;top=0;left=0;right=0;bottom=0;" parent="6jMnWPeVli86li3BOtDc-1" vertex="1">
          <mxGeometry y="180" width="180" height="30" as="geometry" />
        </mxCell>
        <mxCell id="6jMnWPeVli86li3BOtDc-18" value="" style="shape=partialRectangle;connectable=0;fillColor=none;top=0;left=0;bottom=0;right=0;editable=1;overflow=hidden;whiteSpace=wrap;html=1;" parent="6jMnWPeVli86li3BOtDc-17" vertex="1">
          <mxGeometry width="30" height="30" as="geometry">
            <mxRectangle width="30" height="30" as="alternateBounds" />
          </mxGeometry>
        </mxCell>
        <mxCell id="6jMnWPeVli86li3BOtDc-19" value="media_type" style="shape=partialRectangle;connectable=0;fillColor=none;top=0;left=0;bottom=0;right=0;align=left;spacingLeft=6;overflow=hidden;whiteSpace=wrap;html=1;" parent="6jMnWPeVli86li3BOtDc-17" vertex="1">
          <mxGeometry x="30" width="150" height="30" as="geometry">
            <mxRectangle width="150" height="30" as="alternateBounds" />
          </mxGeometry>
        </mxCell>
        <mxCell id="6jMnWPeVli86li3BOtDc-223" value="" style="shape=tableRow;horizontal=0;startSize=0;swimlaneHead=0;swimlaneBody=0;fillColor=none;collapsible=0;dropTarget=0;points=[[0,0.5],[1,0.5]];portConstraint=eastwest;top=0;left=0;right=0;bottom=0;" parent="6jMnWPeVli86li3BOtDc-1" vertex="1">
          <mxGeometry y="210" width="180" height="30" as="geometry" />
        </mxCell>
        <mxCell id="6jMnWPeVli86li3BOtDc-224" value="" style="shape=partialRectangle;connectable=0;fillColor=none;top=0;left=0;bottom=0;right=0;editable=1;overflow=hidden;whiteSpace=wrap;html=1;" parent="6jMnWPeVli86li3BOtDc-223" vertex="1">
          <mxGeometry width="30" height="30" as="geometry">
            <mxRectangle width="30" height="30" as="alternateBounds" />
          </mxGeometry>
        </mxCell>
        <mxCell id="6jMnWPeVli86li3BOtDc-225" value="file_path" style="shape=partialRectangle;connectable=0;fillColor=none;top=0;left=0;bottom=0;right=0;align=left;spacingLeft=6;overflow=hidden;whiteSpace=wrap;html=1;" parent="6jMnWPeVli86li3BOtDc-223" vertex="1">
          <mxGeometry x="30" width="150" height="30" as="geometry">
            <mxRectangle width="150" height="30" as="alternateBounds" />
          </mxGeometry>
        </mxCell>
        <mxCell id="6jMnWPeVli86li3BOtDc-20" value="" style="shape=tableRow;horizontal=0;startSize=0;swimlaneHead=0;swimlaneBody=0;fillColor=none;collapsible=0;dropTarget=0;points=[[0,0.5],[1,0.5]];portConstraint=eastwest;top=0;left=0;right=0;bottom=0;" parent="6jMnWPeVli86li3BOtDc-1" vertex="1">
          <mxGeometry y="240" width="180" height="30" as="geometry" />
        </mxCell>
        <mxCell id="6jMnWPeVli86li3BOtDc-21" value="" style="shape=partialRectangle;connectable=0;fillColor=none;top=0;left=0;bottom=0;right=0;editable=1;overflow=hidden;whiteSpace=wrap;html=1;" parent="6jMnWPeVli86li3BOtDc-20" vertex="1">
          <mxGeometry width="30" height="30" as="geometry">
            <mxRectangle width="30" height="30" as="alternateBounds" />
          </mxGeometry>
        </mxCell>
        <mxCell id="6jMnWPeVli86li3BOtDc-22" value="series_title" style="shape=partialRectangle;connectable=0;fillColor=none;top=0;left=0;bottom=0;right=0;align=left;spacingLeft=6;overflow=hidden;whiteSpace=wrap;html=1;" parent="6jMnWPeVli86li3BOtDc-20" vertex="1">
          <mxGeometry x="30" width="150" height="30" as="geometry">
            <mxRectangle width="150" height="30" as="alternateBounds" />
          </mxGeometry>
        </mxCell>
        <mxCell id="6jMnWPeVli86li3BOtDc-23" value="" style="shape=tableRow;horizontal=0;startSize=0;swimlaneHead=0;swimlaneBody=0;fillColor=none;collapsible=0;dropTarget=0;points=[[0,0.5],[1,0.5]];portConstraint=eastwest;top=0;left=0;right=0;bottom=0;" parent="6jMnWPeVli86li3BOtDc-1" vertex="1">
          <mxGeometry y="270" width="180" height="30" as="geometry" />
        </mxCell>
        <mxCell id="6jMnWPeVli86li3BOtDc-24" value="" style="shape=partialRectangle;connectable=0;fillColor=none;top=0;left=0;bottom=0;right=0;editable=1;overflow=hidden;whiteSpace=wrap;html=1;" parent="6jMnWPeVli86li3BOtDc-23" vertex="1">
          <mxGeometry width="30" height="30" as="geometry">
            <mxRectangle width="30" height="30" as="alternateBounds" />
          </mxGeometry>
        </mxCell>
        <mxCell id="6jMnWPeVli86li3BOtDc-25" value="episode_title" style="shape=partialRectangle;connectable=0;fillColor=none;top=0;left=0;bottom=0;right=0;align=left;spacingLeft=6;overflow=hidden;whiteSpace=wrap;html=1;" parent="6jMnWPeVli86li3BOtDc-23" vertex="1">
          <mxGeometry x="30" width="150" height="30" as="geometry">
            <mxRectangle width="150" height="30" as="alternateBounds" />
          </mxGeometry>
        </mxCell>
        <mxCell id="6jMnWPeVli86li3BOtDc-26" value="" style="shape=tableRow;horizontal=0;startSize=0;swimlaneHead=0;swimlaneBody=0;fillColor=none;collapsible=0;dropTarget=0;points=[[0,0.5],[1,0.5]];portConstraint=eastwest;top=0;left=0;right=0;bottom=0;" parent="6jMnWPeVli86li3BOtDc-1" vertex="1">
          <mxGeometry y="300" width="180" height="30" as="geometry" />
        </mxCell>
        <mxCell id="6jMnWPeVli86li3BOtDc-27" value="" style="shape=partialRectangle;connectable=0;fillColor=none;top=0;left=0;bottom=0;right=0;editable=1;overflow=hidden;whiteSpace=wrap;html=1;" parent="6jMnWPeVli86li3BOtDc-26" vertex="1">
          <mxGeometry width="30" height="30" as="geometry">
            <mxRectangle width="30" height="30" as="alternateBounds" />
          </mxGeometry>
        </mxCell>
        <mxCell id="6jMnWPeVli86li3BOtDc-28" value="season_number" style="shape=partialRectangle;connectable=0;fillColor=none;top=0;left=0;bottom=0;right=0;align=left;spacingLeft=6;overflow=hidden;whiteSpace=wrap;html=1;" parent="6jMnWPeVli86li3BOtDc-26" vertex="1">
          <mxGeometry x="30" width="150" height="30" as="geometry">
            <mxRectangle width="150" height="30" as="alternateBounds" />
          </mxGeometry>
        </mxCell>
        <mxCell id="6jMnWPeVli86li3BOtDc-29" value="" style="shape=tableRow;horizontal=0;startSize=0;swimlaneHead=0;swimlaneBody=0;fillColor=none;collapsible=0;dropTarget=0;points=[[0,0.5],[1,0.5]];portConstraint=eastwest;top=0;left=0;right=0;bottom=0;" parent="6jMnWPeVli86li3BOtDc-1" vertex="1">
          <mxGeometry y="330" width="180" height="30" as="geometry" />
        </mxCell>
        <mxCell id="6jMnWPeVli86li3BOtDc-30" value="" style="shape=partialRectangle;connectable=0;fillColor=none;top=0;left=0;bottom=0;right=0;editable=1;overflow=hidden;whiteSpace=wrap;html=1;" parent="6jMnWPeVli86li3BOtDc-29" vertex="1">
          <mxGeometry width="30" height="30" as="geometry">
            <mxRectangle width="30" height="30" as="alternateBounds" />
          </mxGeometry>
        </mxCell>
        <mxCell id="6jMnWPeVli86li3BOtDc-31" value="episode_number" style="shape=partialRectangle;connectable=0;fillColor=none;top=0;left=0;bottom=0;right=0;align=left;spacingLeft=6;overflow=hidden;whiteSpace=wrap;html=1;" parent="6jMnWPeVli86li3BOtDc-29" vertex="1">
          <mxGeometry x="30" width="150" height="30" as="geometry">
            <mxRectangle width="150" height="30" as="alternateBounds" />
          </mxGeometry>
        </mxCell>
        <mxCell id="6jMnWPeVli86li3BOtDc-32" value="" style="shape=tableRow;horizontal=0;startSize=0;swimlaneHead=0;swimlaneBody=0;fillColor=none;collapsible=0;dropTarget=0;points=[[0,0.5],[1,0.5]];portConstraint=eastwest;top=0;left=0;right=0;bottom=0;" parent="6jMnWPeVli86li3BOtDc-1" vertex="1">
          <mxGeometry y="360" width="180" height="30" as="geometry" />
        </mxCell>
        <mxCell id="6jMnWPeVli86li3BOtDc-33" value="FK" style="shape=partialRectangle;connectable=0;fillColor=none;top=0;left=0;bottom=0;right=0;editable=1;overflow=hidden;whiteSpace=wrap;html=1;" parent="6jMnWPeVli86li3BOtDc-32" vertex="1">
          <mxGeometry width="30" height="30" as="geometry">
            <mxRectangle width="30" height="30" as="alternateBounds" />
          </mxGeometry>
        </mxCell>
        <mxCell id="6jMnWPeVli86li3BOtDc-34" value="language_id" style="shape=partialRectangle;connectable=0;fillColor=none;top=0;left=0;bottom=0;right=0;align=left;spacingLeft=6;overflow=hidden;whiteSpace=wrap;html=1;" parent="6jMnWPeVli86li3BOtDc-32" vertex="1">
          <mxGeometry x="30" width="150" height="30" as="geometry">
            <mxRectangle width="150" height="30" as="alternateBounds" />
          </mxGeometry>
        </mxCell>
        <mxCell id="6jMnWPeVli86li3BOtDc-35" value="media_gerne" style="shape=table;startSize=30;container=1;collapsible=1;childLayout=tableLayout;fixedRows=1;rowLines=0;fontStyle=1;align=center;resizeLast=1;html=1;" parent="1" vertex="1">
          <mxGeometry x="1890" y="-584" width="210" height="90" as="geometry" />
        </mxCell>
        <mxCell id="6jMnWPeVli86li3BOtDc-36" value="" style="shape=tableRow;horizontal=0;startSize=0;swimlaneHead=0;swimlaneBody=0;fillColor=none;collapsible=0;dropTarget=0;points=[[0,0.5],[1,0.5]];portConstraint=eastwest;top=0;left=0;right=0;bottom=1;" parent="6jMnWPeVli86li3BOtDc-35" vertex="1">
          <mxGeometry y="30" width="210" height="30" as="geometry" />
        </mxCell>
        <mxCell id="6jMnWPeVli86li3BOtDc-37" value="PK,FK1" style="shape=partialRectangle;connectable=0;fillColor=none;top=0;left=0;bottom=0;right=0;fontStyle=1;overflow=hidden;whiteSpace=wrap;html=1;" parent="6jMnWPeVli86li3BOtDc-36" vertex="1">
          <mxGeometry width="60" height="30" as="geometry">
            <mxRectangle width="60" height="30" as="alternateBounds" />
          </mxGeometry>
        </mxCell>
        <mxCell id="6jMnWPeVli86li3BOtDc-38" value="media_id" style="shape=partialRectangle;connectable=0;fillColor=none;top=0;left=0;bottom=0;right=0;align=left;spacingLeft=6;fontStyle=5;overflow=hidden;whiteSpace=wrap;html=1;" parent="6jMnWPeVli86li3BOtDc-36" vertex="1">
          <mxGeometry x="60" width="150" height="30" as="geometry">
            <mxRectangle width="150" height="30" as="alternateBounds" />
          </mxGeometry>
        </mxCell>
        <mxCell id="6jMnWPeVli86li3BOtDc-39" value="" style="shape=tableRow;horizontal=0;startSize=0;swimlaneHead=0;swimlaneBody=0;fillColor=none;collapsible=0;dropTarget=0;points=[[0,0.5],[1,0.5]];portConstraint=eastwest;top=0;left=0;right=0;bottom=0;" parent="6jMnWPeVli86li3BOtDc-35" vertex="1">
          <mxGeometry y="60" width="210" height="30" as="geometry" />
        </mxCell>
        <mxCell id="6jMnWPeVli86li3BOtDc-40" value="PK,FK2" style="shape=partialRectangle;connectable=0;fillColor=none;top=0;left=0;bottom=0;right=0;editable=1;overflow=hidden;whiteSpace=wrap;html=1;fontStyle=1" parent="6jMnWPeVli86li3BOtDc-39" vertex="1">
          <mxGeometry width="60" height="30" as="geometry">
            <mxRectangle width="60" height="30" as="alternateBounds" />
          </mxGeometry>
        </mxCell>
        <mxCell id="6jMnWPeVli86li3BOtDc-41" value="gerne_id" style="shape=partialRectangle;connectable=0;fillColor=none;top=0;left=0;bottom=0;right=0;align=left;spacingLeft=6;overflow=hidden;whiteSpace=wrap;html=1;fontStyle=5" parent="6jMnWPeVli86li3BOtDc-39" vertex="1">
          <mxGeometry x="60" width="150" height="30" as="geometry">
            <mxRectangle width="150" height="30" as="alternateBounds" />
          </mxGeometry>
        </mxCell>
        <mxCell id="6jMnWPeVli86li3BOtDc-42" value="gerne" style="shape=table;startSize=30;container=1;collapsible=1;childLayout=tableLayout;fixedRows=1;rowLines=0;fontStyle=1;align=center;resizeLast=1;html=1;" parent="1" vertex="1">
          <mxGeometry x="1520" y="-584" width="180" height="90" as="geometry" />
        </mxCell>
        <mxCell id="6jMnWPeVli86li3BOtDc-43" value="" style="shape=tableRow;horizontal=0;startSize=0;swimlaneHead=0;swimlaneBody=0;fillColor=none;collapsible=0;dropTarget=0;points=[[0,0.5],[1,0.5]];portConstraint=eastwest;top=0;left=0;right=0;bottom=1;" parent="6jMnWPeVli86li3BOtDc-42" vertex="1">
          <mxGeometry y="30" width="180" height="30" as="geometry" />
        </mxCell>
        <mxCell id="6jMnWPeVli86li3BOtDc-44" value="PK" style="shape=partialRectangle;connectable=0;fillColor=none;top=0;left=0;bottom=0;right=0;fontStyle=1;overflow=hidden;whiteSpace=wrap;html=1;" parent="6jMnWPeVli86li3BOtDc-43" vertex="1">
          <mxGeometry width="30" height="30" as="geometry">
            <mxRectangle width="30" height="30" as="alternateBounds" />
          </mxGeometry>
        </mxCell>
        <mxCell id="6jMnWPeVli86li3BOtDc-45" value="id" style="shape=partialRectangle;connectable=0;fillColor=none;top=0;left=0;bottom=0;right=0;align=left;spacingLeft=6;fontStyle=5;overflow=hidden;whiteSpace=wrap;html=1;" parent="6jMnWPeVli86li3BOtDc-43" vertex="1">
          <mxGeometry x="30" width="150" height="30" as="geometry">
            <mxRectangle width="150" height="30" as="alternateBounds" />
          </mxGeometry>
        </mxCell>
        <mxCell id="6jMnWPeVli86li3BOtDc-46" value="" style="shape=tableRow;horizontal=0;startSize=0;swimlaneHead=0;swimlaneBody=0;fillColor=none;collapsible=0;dropTarget=0;points=[[0,0.5],[1,0.5]];portConstraint=eastwest;top=0;left=0;right=0;bottom=0;" parent="6jMnWPeVli86li3BOtDc-42" vertex="1">
          <mxGeometry y="60" width="180" height="30" as="geometry" />
        </mxCell>
        <mxCell id="6jMnWPeVli86li3BOtDc-47" value="" style="shape=partialRectangle;connectable=0;fillColor=none;top=0;left=0;bottom=0;right=0;editable=1;overflow=hidden;whiteSpace=wrap;html=1;" parent="6jMnWPeVli86li3BOtDc-46" vertex="1">
          <mxGeometry width="30" height="30" as="geometry">
            <mxRectangle width="30" height="30" as="alternateBounds" />
          </mxGeometry>
        </mxCell>
        <mxCell id="6jMnWPeVli86li3BOtDc-48" value="name" style="shape=partialRectangle;connectable=0;fillColor=none;top=0;left=0;bottom=0;right=0;align=left;spacingLeft=6;overflow=hidden;whiteSpace=wrap;html=1;" parent="6jMnWPeVli86li3BOtDc-46" vertex="1">
          <mxGeometry x="30" width="150" height="30" as="geometry">
            <mxRectangle width="150" height="30" as="alternateBounds" />
          </mxGeometry>
        </mxCell>
        <mxCell id="6jMnWPeVli86li3BOtDc-49" value="media_restriction" style="shape=table;startSize=30;container=1;collapsible=1;childLayout=tableLayout;fixedRows=1;rowLines=0;fontStyle=1;align=center;resizeLast=1;html=1;whiteSpace=wrap;" parent="1" vertex="1">
          <mxGeometry x="1920" y="-450" width="180" height="90" as="geometry" />
        </mxCell>
        <mxCell id="6jMnWPeVli86li3BOtDc-50" value="" style="shape=tableRow;horizontal=0;startSize=0;swimlaneHead=0;swimlaneBody=0;fillColor=none;collapsible=0;dropTarget=0;points=[[0,0.5],[1,0.5]];portConstraint=eastwest;top=0;left=0;right=0;bottom=0;html=1;" parent="6jMnWPeVli86li3BOtDc-49" vertex="1">
          <mxGeometry y="30" width="180" height="30" as="geometry" />
        </mxCell>
        <mxCell id="6jMnWPeVli86li3BOtDc-51" value="PK,FK1" style="shape=partialRectangle;connectable=0;fillColor=none;top=0;left=0;bottom=0;right=0;fontStyle=1;overflow=hidden;html=1;whiteSpace=wrap;" parent="6jMnWPeVli86li3BOtDc-50" vertex="1">
          <mxGeometry width="60" height="30" as="geometry">
            <mxRectangle width="60" height="30" as="alternateBounds" />
          </mxGeometry>
        </mxCell>
        <mxCell id="6jMnWPeVli86li3BOtDc-52" value="media_id" style="shape=partialRectangle;connectable=0;fillColor=none;top=0;left=0;bottom=0;right=0;align=left;spacingLeft=6;fontStyle=5;overflow=hidden;html=1;whiteSpace=wrap;" parent="6jMnWPeVli86li3BOtDc-50" vertex="1">
          <mxGeometry x="60" width="120" height="30" as="geometry">
            <mxRectangle width="120" height="30" as="alternateBounds" />
          </mxGeometry>
        </mxCell>
        <mxCell id="6jMnWPeVli86li3BOtDc-53" value="" style="shape=tableRow;horizontal=0;startSize=0;swimlaneHead=0;swimlaneBody=0;fillColor=none;collapsible=0;dropTarget=0;points=[[0,0.5],[1,0.5]];portConstraint=eastwest;top=0;left=0;right=0;bottom=1;html=1;" parent="6jMnWPeVli86li3BOtDc-49" vertex="1">
          <mxGeometry y="60" width="180" height="30" as="geometry" />
        </mxCell>
        <mxCell id="6jMnWPeVli86li3BOtDc-54" value="PK,FK2" style="shape=partialRectangle;connectable=0;fillColor=none;top=0;left=0;bottom=0;right=0;fontStyle=1;overflow=hidden;html=1;whiteSpace=wrap;" parent="6jMnWPeVli86li3BOtDc-53" vertex="1">
          <mxGeometry width="60" height="30" as="geometry">
            <mxRectangle width="60" height="30" as="alternateBounds" />
          </mxGeometry>
        </mxCell>
        <mxCell id="6jMnWPeVli86li3BOtDc-55" value="restriction_id" style="shape=partialRectangle;connectable=0;fillColor=none;top=0;left=0;bottom=0;right=0;align=left;spacingLeft=6;fontStyle=5;overflow=hidden;html=1;whiteSpace=wrap;" parent="6jMnWPeVli86li3BOtDc-53" vertex="1">
          <mxGeometry x="60" width="120" height="30" as="geometry">
            <mxRectangle width="120" height="30" as="alternateBounds" />
          </mxGeometry>
        </mxCell>
        <mxCell id="6jMnWPeVli86li3BOtDc-56" value="restriction" style="shape=table;startSize=30;container=1;collapsible=1;childLayout=tableLayout;fixedRows=1;rowLines=0;fontStyle=1;align=center;resizeLast=1;html=1;" parent="1" vertex="1">
          <mxGeometry x="1519" y="-450" width="180" height="90" as="geometry" />
        </mxCell>
        <mxCell id="6jMnWPeVli86li3BOtDc-57" value="" style="shape=tableRow;horizontal=0;startSize=0;swimlaneHead=0;swimlaneBody=0;fillColor=none;collapsible=0;dropTarget=0;points=[[0,0.5],[1,0.5]];portConstraint=eastwest;top=0;left=0;right=0;bottom=1;" parent="6jMnWPeVli86li3BOtDc-56" vertex="1">
          <mxGeometry y="30" width="180" height="30" as="geometry" />
        </mxCell>
        <mxCell id="6jMnWPeVli86li3BOtDc-58" value="PK" style="shape=partialRectangle;connectable=0;fillColor=none;top=0;left=0;bottom=0;right=0;fontStyle=1;overflow=hidden;whiteSpace=wrap;html=1;" parent="6jMnWPeVli86li3BOtDc-57" vertex="1">
          <mxGeometry width="30" height="30" as="geometry">
            <mxRectangle width="30" height="30" as="alternateBounds" />
          </mxGeometry>
        </mxCell>
        <mxCell id="6jMnWPeVli86li3BOtDc-59" value="id" style="shape=partialRectangle;connectable=0;fillColor=none;top=0;left=0;bottom=0;right=0;align=left;spacingLeft=6;fontStyle=5;overflow=hidden;whiteSpace=wrap;html=1;" parent="6jMnWPeVli86li3BOtDc-57" vertex="1">
          <mxGeometry x="30" width="150" height="30" as="geometry">
            <mxRectangle width="150" height="30" as="alternateBounds" />
          </mxGeometry>
        </mxCell>
        <mxCell id="6jMnWPeVli86li3BOtDc-60" value="" style="shape=tableRow;horizontal=0;startSize=0;swimlaneHead=0;swimlaneBody=0;fillColor=none;collapsible=0;dropTarget=0;points=[[0,0.5],[1,0.5]];portConstraint=eastwest;top=0;left=0;right=0;bottom=0;" parent="6jMnWPeVli86li3BOtDc-56" vertex="1">
          <mxGeometry y="60" width="180" height="30" as="geometry" />
        </mxCell>
        <mxCell id="6jMnWPeVli86li3BOtDc-61" value="" style="shape=partialRectangle;connectable=0;fillColor=none;top=0;left=0;bottom=0;right=0;editable=1;overflow=hidden;whiteSpace=wrap;html=1;" parent="6jMnWPeVli86li3BOtDc-60" vertex="1">
          <mxGeometry width="30" height="30" as="geometry">
            <mxRectangle width="30" height="30" as="alternateBounds" />
          </mxGeometry>
        </mxCell>
        <mxCell id="6jMnWPeVli86li3BOtDc-62" value="name" style="shape=partialRectangle;connectable=0;fillColor=none;top=0;left=0;bottom=0;right=0;align=left;spacingLeft=6;overflow=hidden;whiteSpace=wrap;html=1;" parent="6jMnWPeVli86li3BOtDc-60" vertex="1">
          <mxGeometry x="30" width="150" height="30" as="geometry">
            <mxRectangle width="150" height="30" as="alternateBounds" />
          </mxGeometry>
        </mxCell>
        <mxCell id="6jMnWPeVli86li3BOtDc-63" value="watchlist" style="shape=table;startSize=30;container=1;collapsible=1;childLayout=tableLayout;fixedRows=1;rowLines=0;fontStyle=1;align=center;resizeLast=1;html=1;whiteSpace=wrap;" parent="1" vertex="1">
          <mxGeometry x="1420" y="-1370" width="180" height="90" as="geometry" />
        </mxCell>
        <mxCell id="6jMnWPeVli86li3BOtDc-64" value="" style="shape=tableRow;horizontal=0;startSize=0;swimlaneHead=0;swimlaneBody=0;fillColor=none;collapsible=0;dropTarget=0;points=[[0,0.5],[1,0.5]];portConstraint=eastwest;top=0;left=0;right=0;bottom=0;html=1;" parent="6jMnWPeVli86li3BOtDc-63" vertex="1">
          <mxGeometry y="30" width="180" height="30" as="geometry" />
        </mxCell>
        <mxCell id="6jMnWPeVli86li3BOtDc-65" value="PK,FK1" style="shape=partialRectangle;connectable=0;fillColor=none;top=0;left=0;bottom=0;right=0;fontStyle=1;overflow=hidden;html=1;whiteSpace=wrap;" parent="6jMnWPeVli86li3BOtDc-64" vertex="1">
          <mxGeometry width="60" height="30" as="geometry">
            <mxRectangle width="60" height="30" as="alternateBounds" />
          </mxGeometry>
        </mxCell>
        <mxCell id="6jMnWPeVli86li3BOtDc-66" value="profile_id" style="shape=partialRectangle;connectable=0;fillColor=none;top=0;left=0;bottom=0;right=0;align=left;spacingLeft=6;fontStyle=5;overflow=hidden;html=1;whiteSpace=wrap;" parent="6jMnWPeVli86li3BOtDc-64" vertex="1">
          <mxGeometry x="60" width="120" height="30" as="geometry">
            <mxRectangle width="120" height="30" as="alternateBounds" />
          </mxGeometry>
        </mxCell>
        <mxCell id="6jMnWPeVli86li3BOtDc-67" value="" style="shape=tableRow;horizontal=0;startSize=0;swimlaneHead=0;swimlaneBody=0;fillColor=none;collapsible=0;dropTarget=0;points=[[0,0.5],[1,0.5]];portConstraint=eastwest;top=0;left=0;right=0;bottom=1;html=1;" parent="6jMnWPeVli86li3BOtDc-63" vertex="1">
          <mxGeometry y="60" width="180" height="30" as="geometry" />
        </mxCell>
        <mxCell id="6jMnWPeVli86li3BOtDc-68" value="PK,FK2" style="shape=partialRectangle;connectable=0;fillColor=none;top=0;left=0;bottom=0;right=0;fontStyle=1;overflow=hidden;html=1;whiteSpace=wrap;" parent="6jMnWPeVli86li3BOtDc-67" vertex="1">
          <mxGeometry width="60" height="30" as="geometry">
            <mxRectangle width="60" height="30" as="alternateBounds" />
          </mxGeometry>
        </mxCell>
        <mxCell id="6jMnWPeVli86li3BOtDc-69" value="media_id" style="shape=partialRectangle;connectable=0;fillColor=none;top=0;left=0;bottom=0;right=0;align=left;spacingLeft=6;fontStyle=5;overflow=hidden;html=1;whiteSpace=wrap;" parent="6jMnWPeVli86li3BOtDc-67" vertex="1">
          <mxGeometry x="60" width="120" height="30" as="geometry">
            <mxRectangle width="120" height="30" as="alternateBounds" />
          </mxGeometry>
        </mxCell>
        <mxCell id="6jMnWPeVli86li3BOtDc-70" value="profile_history" style="shape=table;startSize=30;container=1;collapsible=1;childLayout=tableLayout;fixedRows=1;rowLines=0;fontStyle=1;align=center;resizeLast=1;html=1;whiteSpace=wrap;" parent="1" vertex="1">
          <mxGeometry x="1420" y="-1080" width="180" height="150" as="geometry" />
        </mxCell>
        <mxCell id="6jMnWPeVli86li3BOtDc-71" value="" style="shape=tableRow;horizontal=0;startSize=0;swimlaneHead=0;swimlaneBody=0;fillColor=none;collapsible=0;dropTarget=0;points=[[0,0.5],[1,0.5]];portConstraint=eastwest;top=0;left=0;right=0;bottom=0;html=1;" parent="6jMnWPeVli86li3BOtDc-70" vertex="1">
          <mxGeometry y="30" width="180" height="30" as="geometry" />
        </mxCell>
        <mxCell id="6jMnWPeVli86li3BOtDc-72" value="PK,FK1" style="shape=partialRectangle;connectable=0;fillColor=none;top=0;left=0;bottom=0;right=0;fontStyle=1;overflow=hidden;html=1;whiteSpace=wrap;" parent="6jMnWPeVli86li3BOtDc-71" vertex="1">
          <mxGeometry width="60" height="30" as="geometry">
            <mxRectangle width="60" height="30" as="alternateBounds" />
          </mxGeometry>
        </mxCell>
        <mxCell id="6jMnWPeVli86li3BOtDc-73" value="profile_id" style="shape=partialRectangle;connectable=0;fillColor=none;top=0;left=0;bottom=0;right=0;align=left;spacingLeft=6;fontStyle=5;overflow=hidden;html=1;whiteSpace=wrap;" parent="6jMnWPeVli86li3BOtDc-71" vertex="1">
          <mxGeometry x="60" width="120" height="30" as="geometry">
            <mxRectangle width="120" height="30" as="alternateBounds" />
          </mxGeometry>
        </mxCell>
        <mxCell id="6jMnWPeVli86li3BOtDc-74" value="" style="shape=tableRow;horizontal=0;startSize=0;swimlaneHead=0;swimlaneBody=0;fillColor=none;collapsible=0;dropTarget=0;points=[[0,0.5],[1,0.5]];portConstraint=eastwest;top=0;left=0;right=0;bottom=1;html=1;" parent="6jMnWPeVli86li3BOtDc-70" vertex="1">
          <mxGeometry y="60" width="180" height="30" as="geometry" />
        </mxCell>
        <mxCell id="6jMnWPeVli86li3BOtDc-75" value="PK,FK2" style="shape=partialRectangle;connectable=0;fillColor=none;top=0;left=0;bottom=0;right=0;fontStyle=1;overflow=hidden;html=1;whiteSpace=wrap;" parent="6jMnWPeVli86li3BOtDc-74" vertex="1">
          <mxGeometry width="60" height="30" as="geometry">
            <mxRectangle width="60" height="30" as="alternateBounds" />
          </mxGeometry>
        </mxCell>
        <mxCell id="6jMnWPeVli86li3BOtDc-76" value="media_id" style="shape=partialRectangle;connectable=0;fillColor=none;top=0;left=0;bottom=0;right=0;align=left;spacingLeft=6;fontStyle=5;overflow=hidden;html=1;whiteSpace=wrap;" parent="6jMnWPeVli86li3BOtDc-74" vertex="1">
          <mxGeometry x="60" width="120" height="30" as="geometry">
            <mxRectangle width="120" height="30" as="alternateBounds" />
          </mxGeometry>
        </mxCell>
        <mxCell id="6jMnWPeVli86li3BOtDc-77" value="" style="shape=tableRow;horizontal=0;startSize=0;swimlaneHead=0;swimlaneBody=0;fillColor=none;collapsible=0;dropTarget=0;points=[[0,0.5],[1,0.5]];portConstraint=eastwest;top=0;left=0;right=0;bottom=0;html=1;" parent="6jMnWPeVli86li3BOtDc-70" vertex="1">
          <mxGeometry y="90" width="180" height="30" as="geometry" />
        </mxCell>
        <mxCell id="6jMnWPeVli86li3BOtDc-78" value="" style="shape=partialRectangle;connectable=0;fillColor=none;top=0;left=0;bottom=0;right=0;editable=1;overflow=hidden;html=1;whiteSpace=wrap;" parent="6jMnWPeVli86li3BOtDc-77" vertex="1">
          <mxGeometry width="60" height="30" as="geometry">
            <mxRectangle width="60" height="30" as="alternateBounds" />
          </mxGeometry>
        </mxCell>
        <mxCell id="6jMnWPeVli86li3BOtDc-79" value="watch_time" style="shape=partialRectangle;connectable=0;fillColor=none;top=0;left=0;bottom=0;right=0;align=left;spacingLeft=6;overflow=hidden;html=1;whiteSpace=wrap;" parent="6jMnWPeVli86li3BOtDc-77" vertex="1">
          <mxGeometry x="60" width="120" height="30" as="geometry">
            <mxRectangle width="120" height="30" as="alternateBounds" />
          </mxGeometry>
        </mxCell>
        <mxCell id="6jMnWPeVli86li3BOtDc-80" value="" style="shape=tableRow;horizontal=0;startSize=0;swimlaneHead=0;swimlaneBody=0;fillColor=none;collapsible=0;dropTarget=0;points=[[0,0.5],[1,0.5]];portConstraint=eastwest;top=0;left=0;right=0;bottom=0;html=1;" parent="6jMnWPeVli86li3BOtDc-70" vertex="1">
          <mxGeometry y="120" width="180" height="30" as="geometry" />
        </mxCell>
        <mxCell id="6jMnWPeVli86li3BOtDc-81" value="" style="shape=partialRectangle;connectable=0;fillColor=none;top=0;left=0;bottom=0;right=0;editable=1;overflow=hidden;html=1;whiteSpace=wrap;" parent="6jMnWPeVli86li3BOtDc-80" vertex="1">
          <mxGeometry width="60" height="30" as="geometry">
            <mxRectangle width="60" height="30" as="alternateBounds" />
          </mxGeometry>
        </mxCell>
        <mxCell id="6jMnWPeVli86li3BOtDc-82" value="completed" style="shape=partialRectangle;connectable=0;fillColor=none;top=0;left=0;bottom=0;right=0;align=left;spacingLeft=6;overflow=hidden;html=1;whiteSpace=wrap;" parent="6jMnWPeVli86li3BOtDc-80" vertex="1">
          <mxGeometry x="60" width="120" height="30" as="geometry">
            <mxRectangle width="120" height="30" as="alternateBounds" />
          </mxGeometry>
        </mxCell>
        <mxCell id="6jMnWPeVli86li3BOtDc-83" value="profil&lt;span style=&quot;background-color: initial;&quot;&gt;e&lt;/span&gt;" style="shape=table;startSize=30;container=1;collapsible=1;childLayout=tableLayout;fixedRows=1;rowLines=0;fontStyle=1;align=center;resizeLast=1;html=1;" parent="1" vertex="1">
          <mxGeometry x="1130" y="-1150" width="180" height="240" as="geometry" />
        </mxCell>
        <mxCell id="6jMnWPeVli86li3BOtDc-84" value="" style="shape=tableRow;horizontal=0;startSize=0;swimlaneHead=0;swimlaneBody=0;fillColor=none;collapsible=0;dropTarget=0;points=[[0,0.5],[1,0.5]];portConstraint=eastwest;top=0;left=0;right=0;bottom=1;" parent="6jMnWPeVli86li3BOtDc-83" vertex="1">
          <mxGeometry y="30" width="180" height="30" as="geometry" />
        </mxCell>
        <mxCell id="6jMnWPeVli86li3BOtDc-85" value="PK" style="shape=partialRectangle;connectable=0;fillColor=none;top=0;left=0;bottom=0;right=0;fontStyle=1;overflow=hidden;whiteSpace=wrap;html=1;" parent="6jMnWPeVli86li3BOtDc-84" vertex="1">
          <mxGeometry width="30" height="30" as="geometry">
            <mxRectangle width="30" height="30" as="alternateBounds" />
          </mxGeometry>
        </mxCell>
        <mxCell id="6jMnWPeVli86li3BOtDc-86" value="id" style="shape=partialRectangle;connectable=0;fillColor=none;top=0;left=0;bottom=0;right=0;align=left;spacingLeft=6;fontStyle=5;overflow=hidden;whiteSpace=wrap;html=1;" parent="6jMnWPeVli86li3BOtDc-84" vertex="1">
          <mxGeometry x="30" width="150" height="30" as="geometry">
            <mxRectangle width="150" height="30" as="alternateBounds" />
          </mxGeometry>
        </mxCell>
        <mxCell id="6jMnWPeVli86li3BOtDc-87" value="" style="shape=tableRow;horizontal=0;startSize=0;swimlaneHead=0;swimlaneBody=0;fillColor=none;collapsible=0;dropTarget=0;points=[[0,0.5],[1,0.5]];portConstraint=eastwest;top=0;left=0;right=0;bottom=0;" parent="6jMnWPeVli86li3BOtDc-83" vertex="1">
          <mxGeometry y="60" width="180" height="30" as="geometry" />
        </mxCell>
        <mxCell id="6jMnWPeVli86li3BOtDc-88" value="FK" style="shape=partialRectangle;connectable=0;fillColor=none;top=0;left=0;bottom=0;right=0;editable=1;overflow=hidden;whiteSpace=wrap;html=1;" parent="6jMnWPeVli86li3BOtDc-87" vertex="1">
          <mxGeometry width="30" height="30" as="geometry">
            <mxRectangle width="30" height="30" as="alternateBounds" />
          </mxGeometry>
        </mxCell>
        <mxCell id="6jMnWPeVli86li3BOtDc-89" value="user_id" style="shape=partialRectangle;connectable=0;fillColor=none;top=0;left=0;bottom=0;right=0;align=left;spacingLeft=6;overflow=hidden;whiteSpace=wrap;html=1;" parent="6jMnWPeVli86li3BOtDc-87" vertex="1">
          <mxGeometry x="30" width="150" height="30" as="geometry">
            <mxRectangle width="150" height="30" as="alternateBounds" />
          </mxGeometry>
        </mxCell>
        <mxCell id="6jMnWPeVli86li3BOtDc-90" value="" style="shape=tableRow;horizontal=0;startSize=0;swimlaneHead=0;swimlaneBody=0;fillColor=none;collapsible=0;dropTarget=0;points=[[0,0.5],[1,0.5]];portConstraint=eastwest;top=0;left=0;right=0;bottom=0;" parent="6jMnWPeVli86li3BOtDc-83" vertex="1">
          <mxGeometry y="90" width="180" height="30" as="geometry" />
        </mxCell>
        <mxCell id="6jMnWPeVli86li3BOtDc-91" value="" style="shape=partialRectangle;connectable=0;fillColor=none;top=0;left=0;bottom=0;right=0;editable=1;overflow=hidden;whiteSpace=wrap;html=1;" parent="6jMnWPeVli86li3BOtDc-90" vertex="1">
          <mxGeometry width="30" height="30" as="geometry">
            <mxRectangle width="30" height="30" as="alternateBounds" />
          </mxGeometry>
        </mxCell>
        <mxCell id="6jMnWPeVli86li3BOtDc-92" value="name" style="shape=partialRectangle;connectable=0;fillColor=none;top=0;left=0;bottom=0;right=0;align=left;spacingLeft=6;overflow=hidden;whiteSpace=wrap;html=1;" parent="6jMnWPeVli86li3BOtDc-90" vertex="1">
          <mxGeometry x="30" width="150" height="30" as="geometry">
            <mxRectangle width="150" height="30" as="alternateBounds" />
          </mxGeometry>
        </mxCell>
        <mxCell id="6jMnWPeVli86li3BOtDc-93" value="" style="shape=tableRow;horizontal=0;startSize=0;swimlaneHead=0;swimlaneBody=0;fillColor=none;collapsible=0;dropTarget=0;points=[[0,0.5],[1,0.5]];portConstraint=eastwest;top=0;left=0;right=0;bottom=0;" parent="6jMnWPeVli86li3BOtDc-83" vertex="1">
          <mxGeometry y="120" width="180" height="30" as="geometry" />
        </mxCell>
        <mxCell id="6jMnWPeVli86li3BOtDc-94" value="" style="shape=partialRectangle;connectable=0;fillColor=none;top=0;left=0;bottom=0;right=0;editable=1;overflow=hidden;whiteSpace=wrap;html=1;" parent="6jMnWPeVli86li3BOtDc-93" vertex="1">
          <mxGeometry width="30" height="30" as="geometry">
            <mxRectangle width="30" height="30" as="alternateBounds" />
          </mxGeometry>
        </mxCell>
        <mxCell id="6jMnWPeVli86li3BOtDc-95" value="profile_picture" style="shape=partialRectangle;connectable=0;fillColor=none;top=0;left=0;bottom=0;right=0;align=left;spacingLeft=6;overflow=hidden;whiteSpace=wrap;html=1;" parent="6jMnWPeVli86li3BOtDc-93" vertex="1">
          <mxGeometry x="30" width="150" height="30" as="geometry">
            <mxRectangle width="150" height="30" as="alternateBounds" />
          </mxGeometry>
        </mxCell>
        <mxCell id="6jMnWPeVli86li3BOtDc-96" value="" style="shape=tableRow;horizontal=0;startSize=0;swimlaneHead=0;swimlaneBody=0;fillColor=none;collapsible=0;dropTarget=0;points=[[0,0.5],[1,0.5]];portConstraint=eastwest;top=0;left=0;right=0;bottom=0;" parent="6jMnWPeVli86li3BOtDc-83" vertex="1">
          <mxGeometry y="150" width="180" height="30" as="geometry" />
        </mxCell>
        <mxCell id="6jMnWPeVli86li3BOtDc-97" value="" style="shape=partialRectangle;connectable=0;fillColor=none;top=0;left=0;bottom=0;right=0;editable=1;overflow=hidden;whiteSpace=wrap;html=1;" parent="6jMnWPeVli86li3BOtDc-96" vertex="1">
          <mxGeometry width="30" height="30" as="geometry">
            <mxRectangle width="30" height="30" as="alternateBounds" />
          </mxGeometry>
        </mxCell>
        <mxCell id="6jMnWPeVli86li3BOtDc-98" value="media_preference" style="shape=partialRectangle;connectable=0;fillColor=none;top=0;left=0;bottom=0;right=0;align=left;spacingLeft=6;overflow=hidden;whiteSpace=wrap;html=1;" parent="6jMnWPeVli86li3BOtDc-96" vertex="1">
          <mxGeometry x="30" width="150" height="30" as="geometry">
            <mxRectangle width="150" height="30" as="alternateBounds" />
          </mxGeometry>
        </mxCell>
        <mxCell id="6jMnWPeVli86li3BOtDc-99" value="" style="shape=tableRow;horizontal=0;startSize=0;swimlaneHead=0;swimlaneBody=0;fillColor=none;collapsible=0;dropTarget=0;points=[[0,0.5],[1,0.5]];portConstraint=eastwest;top=0;left=0;right=0;bottom=0;" parent="6jMnWPeVli86li3BOtDc-83" vertex="1">
          <mxGeometry y="180" width="180" height="30" as="geometry" />
        </mxCell>
        <mxCell id="6jMnWPeVli86li3BOtDc-100" value="" style="shape=partialRectangle;connectable=0;fillColor=none;top=0;left=0;bottom=0;right=0;editable=1;overflow=hidden;whiteSpace=wrap;html=1;" parent="6jMnWPeVli86li3BOtDc-99" vertex="1">
          <mxGeometry width="30" height="30" as="geometry">
            <mxRectangle width="30" height="30" as="alternateBounds" />
          </mxGeometry>
        </mxCell>
        <mxCell id="6jMnWPeVli86li3BOtDc-101" value="date_of_birth" style="shape=partialRectangle;connectable=0;fillColor=none;top=0;left=0;bottom=0;right=0;align=left;spacingLeft=6;overflow=hidden;whiteSpace=wrap;html=1;" parent="6jMnWPeVli86li3BOtDc-99" vertex="1">
          <mxGeometry x="30" width="150" height="30" as="geometry">
            <mxRectangle width="150" height="30" as="alternateBounds" />
          </mxGeometry>
        </mxCell>
        <mxCell id="6jMnWPeVli86li3BOtDc-102" value="" style="shape=tableRow;horizontal=0;startSize=0;swimlaneHead=0;swimlaneBody=0;fillColor=none;collapsible=0;dropTarget=0;points=[[0,0.5],[1,0.5]];portConstraint=eastwest;top=0;left=0;right=0;bottom=0;" parent="6jMnWPeVli86li3BOtDc-83" vertex="1">
          <mxGeometry y="210" width="180" height="30" as="geometry" />
        </mxCell>
        <mxCell id="6jMnWPeVli86li3BOtDc-103" value="FK" style="shape=partialRectangle;connectable=0;fillColor=none;top=0;left=0;bottom=0;right=0;editable=1;overflow=hidden;whiteSpace=wrap;html=1;" parent="6jMnWPeVli86li3BOtDc-102" vertex="1">
          <mxGeometry width="30" height="30" as="geometry">
            <mxRectangle width="30" height="30" as="alternateBounds" />
          </mxGeometry>
        </mxCell>
        <mxCell id="6jMnWPeVli86li3BOtDc-104" value="language_id" style="shape=partialRectangle;connectable=0;fillColor=none;top=0;left=0;bottom=0;right=0;align=left;spacingLeft=6;overflow=hidden;whiteSpace=wrap;html=1;" parent="6jMnWPeVli86li3BOtDc-102" vertex="1">
          <mxGeometry x="30" width="150" height="30" as="geometry">
            <mxRectangle width="150" height="30" as="alternateBounds" />
          </mxGeometry>
        </mxCell>
        <mxCell id="6jMnWPeVli86li3BOtDc-105" value="profile_genre_preference" style="shape=table;startSize=30;container=1;collapsible=1;childLayout=tableLayout;fixedRows=1;rowLines=0;fontStyle=1;align=center;resizeLast=1;html=1;whiteSpace=wrap;" parent="1" vertex="1">
          <mxGeometry x="1130" y="-590" width="180" height="90" as="geometry" />
        </mxCell>
        <mxCell id="6jMnWPeVli86li3BOtDc-106" value="" style="shape=tableRow;horizontal=0;startSize=0;swimlaneHead=0;swimlaneBody=0;fillColor=none;collapsible=0;dropTarget=0;points=[[0,0.5],[1,0.5]];portConstraint=eastwest;top=0;left=0;right=0;bottom=0;html=1;" parent="6jMnWPeVli86li3BOtDc-105" vertex="1">
          <mxGeometry y="30" width="180" height="30" as="geometry" />
        </mxCell>
        <mxCell id="6jMnWPeVli86li3BOtDc-107" value="PK,FK1" style="shape=partialRectangle;connectable=0;fillColor=none;top=0;left=0;bottom=0;right=0;fontStyle=1;overflow=hidden;html=1;whiteSpace=wrap;" parent="6jMnWPeVli86li3BOtDc-106" vertex="1">
          <mxGeometry width="60" height="30" as="geometry">
            <mxRectangle width="60" height="30" as="alternateBounds" />
          </mxGeometry>
        </mxCell>
        <mxCell id="6jMnWPeVli86li3BOtDc-108" value="profile_id" style="shape=partialRectangle;connectable=0;fillColor=none;top=0;left=0;bottom=0;right=0;align=left;spacingLeft=6;fontStyle=5;overflow=hidden;html=1;whiteSpace=wrap;" parent="6jMnWPeVli86li3BOtDc-106" vertex="1">
          <mxGeometry x="60" width="120" height="30" as="geometry">
            <mxRectangle width="120" height="30" as="alternateBounds" />
          </mxGeometry>
        </mxCell>
        <mxCell id="6jMnWPeVli86li3BOtDc-109" value="" style="shape=tableRow;horizontal=0;startSize=0;swimlaneHead=0;swimlaneBody=0;fillColor=none;collapsible=0;dropTarget=0;points=[[0,0.5],[1,0.5]];portConstraint=eastwest;top=0;left=0;right=0;bottom=1;html=1;" parent="6jMnWPeVli86li3BOtDc-105" vertex="1">
          <mxGeometry y="60" width="180" height="30" as="geometry" />
        </mxCell>
        <mxCell id="6jMnWPeVli86li3BOtDc-110" value="PK,FK2" style="shape=partialRectangle;connectable=0;fillColor=none;top=0;left=0;bottom=0;right=0;fontStyle=1;overflow=hidden;html=1;whiteSpace=wrap;" parent="6jMnWPeVli86li3BOtDc-109" vertex="1">
          <mxGeometry width="60" height="30" as="geometry">
            <mxRectangle width="60" height="30" as="alternateBounds" />
          </mxGeometry>
        </mxCell>
        <mxCell id="6jMnWPeVli86li3BOtDc-111" value="genre_id" style="shape=partialRectangle;connectable=0;fillColor=none;top=0;left=0;bottom=0;right=0;align=left;spacingLeft=6;fontStyle=5;overflow=hidden;html=1;whiteSpace=wrap;" parent="6jMnWPeVli86li3BOtDc-109" vertex="1">
          <mxGeometry x="60" width="120" height="30" as="geometry">
            <mxRectangle width="120" height="30" as="alternateBounds" />
          </mxGeometry>
        </mxCell>
        <mxCell id="6jMnWPeVli86li3BOtDc-112" value="profile_restriction_preference" style="shape=table;startSize=30;container=1;collapsible=1;childLayout=tableLayout;fixedRows=1;rowLines=0;fontStyle=1;align=center;resizeLast=1;html=1;whiteSpace=wrap;" parent="1" vertex="1">
          <mxGeometry x="1130" y="-450" width="180" height="90" as="geometry" />
        </mxCell>
        <mxCell id="6jMnWPeVli86li3BOtDc-113" value="" style="shape=tableRow;horizontal=0;startSize=0;swimlaneHead=0;swimlaneBody=0;fillColor=none;collapsible=0;dropTarget=0;points=[[0,0.5],[1,0.5]];portConstraint=eastwest;top=0;left=0;right=0;bottom=0;html=1;" parent="6jMnWPeVli86li3BOtDc-112" vertex="1">
          <mxGeometry y="30" width="180" height="30" as="geometry" />
        </mxCell>
        <mxCell id="6jMnWPeVli86li3BOtDc-114" value="PK,FK1" style="shape=partialRectangle;connectable=0;fillColor=none;top=0;left=0;bottom=0;right=0;fontStyle=1;overflow=hidden;html=1;whiteSpace=wrap;" parent="6jMnWPeVli86li3BOtDc-113" vertex="1">
          <mxGeometry width="60" height="30" as="geometry">
            <mxRectangle width="60" height="30" as="alternateBounds" />
          </mxGeometry>
        </mxCell>
        <mxCell id="6jMnWPeVli86li3BOtDc-115" value="profile_id" style="shape=partialRectangle;connectable=0;fillColor=none;top=0;left=0;bottom=0;right=0;align=left;spacingLeft=6;fontStyle=5;overflow=hidden;html=1;whiteSpace=wrap;" parent="6jMnWPeVli86li3BOtDc-113" vertex="1">
          <mxGeometry x="60" width="120" height="30" as="geometry">
            <mxRectangle width="120" height="30" as="alternateBounds" />
          </mxGeometry>
        </mxCell>
        <mxCell id="6jMnWPeVli86li3BOtDc-116" value="" style="shape=tableRow;horizontal=0;startSize=0;swimlaneHead=0;swimlaneBody=0;fillColor=none;collapsible=0;dropTarget=0;points=[[0,0.5],[1,0.5]];portConstraint=eastwest;top=0;left=0;right=0;bottom=1;html=1;" parent="6jMnWPeVli86li3BOtDc-112" vertex="1">
          <mxGeometry y="60" width="180" height="30" as="geometry" />
        </mxCell>
        <mxCell id="6jMnWPeVli86li3BOtDc-117" value="PK,FK2" style="shape=partialRectangle;connectable=0;fillColor=none;top=0;left=0;bottom=0;right=0;fontStyle=1;overflow=hidden;html=1;whiteSpace=wrap;" parent="6jMnWPeVli86li3BOtDc-116" vertex="1">
          <mxGeometry width="60" height="30" as="geometry">
            <mxRectangle width="60" height="30" as="alternateBounds" />
          </mxGeometry>
        </mxCell>
        <mxCell id="6jMnWPeVli86li3BOtDc-118" value="restriction_id" style="shape=partialRectangle;connectable=0;fillColor=none;top=0;left=0;bottom=0;right=0;align=left;spacingLeft=6;fontStyle=5;overflow=hidden;html=1;whiteSpace=wrap;" parent="6jMnWPeVli86li3BOtDc-116" vertex="1">
          <mxGeometry x="60" width="120" height="30" as="geometry">
            <mxRectangle width="120" height="30" as="alternateBounds" />
          </mxGeometry>
        </mxCell>
        <mxCell id="6jMnWPeVli86li3BOtDc-119" value="language" style="shape=table;startSize=30;container=1;collapsible=1;childLayout=tableLayout;fixedRows=1;rowLines=0;fontStyle=1;align=center;resizeLast=1;html=1;" parent="1" vertex="1">
          <mxGeometry x="1200" y="-1620" width="180" height="90" as="geometry" />
        </mxCell>
        <mxCell id="6jMnWPeVli86li3BOtDc-120" value="" style="shape=tableRow;horizontal=0;startSize=0;swimlaneHead=0;swimlaneBody=0;fillColor=none;collapsible=0;dropTarget=0;points=[[0,0.5],[1,0.5]];portConstraint=eastwest;top=0;left=0;right=0;bottom=1;" parent="6jMnWPeVli86li3BOtDc-119" vertex="1">
          <mxGeometry y="30" width="180" height="30" as="geometry" />
        </mxCell>
        <mxCell id="6jMnWPeVli86li3BOtDc-121" value="PK" style="shape=partialRectangle;connectable=0;fillColor=none;top=0;left=0;bottom=0;right=0;fontStyle=1;overflow=hidden;whiteSpace=wrap;html=1;" parent="6jMnWPeVli86li3BOtDc-120" vertex="1">
          <mxGeometry width="30" height="30" as="geometry">
            <mxRectangle width="30" height="30" as="alternateBounds" />
          </mxGeometry>
        </mxCell>
        <mxCell id="6jMnWPeVli86li3BOtDc-122" value="id" style="shape=partialRectangle;connectable=0;fillColor=none;top=0;left=0;bottom=0;right=0;align=left;spacingLeft=6;fontStyle=5;overflow=hidden;whiteSpace=wrap;html=1;" parent="6jMnWPeVli86li3BOtDc-120" vertex="1">
          <mxGeometry x="30" width="150" height="30" as="geometry">
            <mxRectangle width="150" height="30" as="alternateBounds" />
          </mxGeometry>
        </mxCell>
        <mxCell id="6jMnWPeVli86li3BOtDc-123" value="" style="shape=tableRow;horizontal=0;startSize=0;swimlaneHead=0;swimlaneBody=0;fillColor=none;collapsible=0;dropTarget=0;points=[[0,0.5],[1,0.5]];portConstraint=eastwest;top=0;left=0;right=0;bottom=0;" parent="6jMnWPeVli86li3BOtDc-119" vertex="1">
          <mxGeometry y="60" width="180" height="30" as="geometry" />
        </mxCell>
        <mxCell id="6jMnWPeVli86li3BOtDc-124" value="" style="shape=partialRectangle;connectable=0;fillColor=none;top=0;left=0;bottom=0;right=0;editable=1;overflow=hidden;whiteSpace=wrap;html=1;" parent="6jMnWPeVli86li3BOtDc-123" vertex="1">
          <mxGeometry width="30" height="30" as="geometry">
            <mxRectangle width="30" height="30" as="alternateBounds" />
          </mxGeometry>
        </mxCell>
        <mxCell id="6jMnWPeVli86li3BOtDc-125" value="name" style="shape=partialRectangle;connectable=0;fillColor=none;top=0;left=0;bottom=0;right=0;align=left;spacingLeft=6;overflow=hidden;whiteSpace=wrap;html=1;" parent="6jMnWPeVli86li3BOtDc-123" vertex="1">
          <mxGeometry x="30" width="150" height="30" as="geometry">
            <mxRectangle width="150" height="30" as="alternateBounds" />
          </mxGeometry>
        </mxCell>
        <mxCell id="6jMnWPeVli86li3BOtDc-126" value="subtitle" style="shape=table;startSize=30;container=1;collapsible=1;childLayout=tableLayout;fixedRows=1;rowLines=0;fontStyle=1;align=center;resizeLast=1;html=1;whiteSpace=wrap;" parent="1" vertex="1">
          <mxGeometry x="1420" y="-1490" width="180" height="90" as="geometry" />
        </mxCell>
        <mxCell id="6jMnWPeVli86li3BOtDc-127" value="" style="shape=tableRow;horizontal=0;startSize=0;swimlaneHead=0;swimlaneBody=0;fillColor=none;collapsible=0;dropTarget=0;points=[[0,0.5],[1,0.5]];portConstraint=eastwest;top=0;left=0;right=0;bottom=0;html=1;" parent="6jMnWPeVli86li3BOtDc-126" vertex="1">
          <mxGeometry y="30" width="180" height="30" as="geometry" />
        </mxCell>
        <mxCell id="6jMnWPeVli86li3BOtDc-128" value="PK,FK1" style="shape=partialRectangle;connectable=0;fillColor=none;top=0;left=0;bottom=0;right=0;fontStyle=1;overflow=hidden;html=1;whiteSpace=wrap;" parent="6jMnWPeVli86li3BOtDc-127" vertex="1">
          <mxGeometry width="60" height="30" as="geometry">
            <mxRectangle width="60" height="30" as="alternateBounds" />
          </mxGeometry>
        </mxCell>
        <mxCell id="6jMnWPeVli86li3BOtDc-129" value="media_id" style="shape=partialRectangle;connectable=0;fillColor=none;top=0;left=0;bottom=0;right=0;align=left;spacingLeft=6;fontStyle=5;overflow=hidden;html=1;whiteSpace=wrap;" parent="6jMnWPeVli86li3BOtDc-127" vertex="1">
          <mxGeometry x="60" width="120" height="30" as="geometry">
            <mxRectangle width="120" height="30" as="alternateBounds" />
          </mxGeometry>
        </mxCell>
        <mxCell id="6jMnWPeVli86li3BOtDc-130" value="" style="shape=tableRow;horizontal=0;startSize=0;swimlaneHead=0;swimlaneBody=0;fillColor=none;collapsible=0;dropTarget=0;points=[[0,0.5],[1,0.5]];portConstraint=eastwest;top=0;left=0;right=0;bottom=1;html=1;" parent="6jMnWPeVli86li3BOtDc-126" vertex="1">
          <mxGeometry y="60" width="180" height="30" as="geometry" />
        </mxCell>
        <mxCell id="6jMnWPeVli86li3BOtDc-131" value="PK,FK2" style="shape=partialRectangle;connectable=0;fillColor=none;top=0;left=0;bottom=0;right=0;fontStyle=1;overflow=hidden;html=1;whiteSpace=wrap;" parent="6jMnWPeVli86li3BOtDc-130" vertex="1">
          <mxGeometry width="60" height="30" as="geometry">
            <mxRectangle width="60" height="30" as="alternateBounds" />
          </mxGeometry>
        </mxCell>
        <mxCell id="6jMnWPeVli86li3BOtDc-132" value="language_id" style="shape=partialRectangle;connectable=0;fillColor=none;top=0;left=0;bottom=0;right=0;align=left;spacingLeft=6;fontStyle=5;overflow=hidden;html=1;whiteSpace=wrap;" parent="6jMnWPeVli86li3BOtDc-130" vertex="1">
          <mxGeometry x="60" width="120" height="30" as="geometry">
            <mxRectangle width="120" height="30" as="alternateBounds" />
          </mxGeometry>
        </mxCell>
        <mxCell id="6jMnWPeVli86li3BOtDc-133" value="&lt;div&gt;user&lt;/div&gt;" style="shape=table;startSize=30;container=1;collapsible=1;childLayout=tableLayout;fixedRows=1;rowLines=0;fontStyle=1;align=center;resizeLast=1;html=1;" parent="1" vertex="1">
          <mxGeometry x="600" y="-1150" width="180" height="240" as="geometry">
            <mxRectangle x="80" y="80" width="80" height="40" as="alternateBounds" />
          </mxGeometry>
        </mxCell>
        <mxCell id="6jMnWPeVli86li3BOtDc-134" value="" style="shape=tableRow;horizontal=0;startSize=0;swimlaneHead=0;swimlaneBody=0;fillColor=none;collapsible=0;dropTarget=0;points=[[0,0.5],[1,0.5]];portConstraint=eastwest;top=0;left=0;right=0;bottom=1;" parent="6jMnWPeVli86li3BOtDc-133" vertex="1">
          <mxGeometry y="30" width="180" height="30" as="geometry" />
        </mxCell>
        <mxCell id="6jMnWPeVli86li3BOtDc-135" value="PK" style="shape=partialRectangle;connectable=0;fillColor=none;top=0;left=0;bottom=0;right=0;fontStyle=1;overflow=hidden;whiteSpace=wrap;html=1;" parent="6jMnWPeVli86li3BOtDc-134" vertex="1">
          <mxGeometry width="30" height="30" as="geometry">
            <mxRectangle width="30" height="30" as="alternateBounds" />
          </mxGeometry>
        </mxCell>
        <mxCell id="6jMnWPeVli86li3BOtDc-136" value="id" style="shape=partialRectangle;connectable=0;fillColor=none;top=0;left=0;bottom=0;right=0;align=left;spacingLeft=6;fontStyle=5;overflow=hidden;whiteSpace=wrap;html=1;" parent="6jMnWPeVli86li3BOtDc-134" vertex="1">
          <mxGeometry x="30" width="150" height="30" as="geometry">
            <mxRectangle width="150" height="30" as="alternateBounds" />
          </mxGeometry>
        </mxCell>
        <mxCell id="6jMnWPeVli86li3BOtDc-137" value="" style="shape=tableRow;horizontal=0;startSize=0;swimlaneHead=0;swimlaneBody=0;fillColor=none;collapsible=0;dropTarget=0;points=[[0,0.5],[1,0.5]];portConstraint=eastwest;top=0;left=0;right=0;bottom=0;" parent="6jMnWPeVli86li3BOtDc-133" vertex="1">
          <mxGeometry y="60" width="180" height="30" as="geometry" />
        </mxCell>
        <mxCell id="6jMnWPeVli86li3BOtDc-138" value="" style="shape=partialRectangle;connectable=0;fillColor=none;top=0;left=0;bottom=0;right=0;editable=1;overflow=hidden;whiteSpace=wrap;html=1;" parent="6jMnWPeVli86li3BOtDc-137" vertex="1">
          <mxGeometry width="30" height="30" as="geometry">
            <mxRectangle width="30" height="30" as="alternateBounds" />
          </mxGeometry>
        </mxCell>
        <mxCell id="6jMnWPeVli86li3BOtDc-139" value="email" style="shape=partialRectangle;connectable=0;fillColor=none;top=0;left=0;bottom=0;right=0;align=left;spacingLeft=6;overflow=hidden;whiteSpace=wrap;html=1;" parent="6jMnWPeVli86li3BOtDc-137" vertex="1">
          <mxGeometry x="30" width="150" height="30" as="geometry">
            <mxRectangle width="150" height="30" as="alternateBounds" />
          </mxGeometry>
        </mxCell>
        <mxCell id="6jMnWPeVli86li3BOtDc-140" value="" style="shape=tableRow;horizontal=0;startSize=0;swimlaneHead=0;swimlaneBody=0;fillColor=none;collapsible=0;dropTarget=0;points=[[0,0.5],[1,0.5]];portConstraint=eastwest;top=0;left=0;right=0;bottom=0;" parent="6jMnWPeVli86li3BOtDc-133" vertex="1">
          <mxGeometry y="90" width="180" height="30" as="geometry" />
        </mxCell>
        <mxCell id="6jMnWPeVli86li3BOtDc-141" value="" style="shape=partialRectangle;connectable=0;fillColor=none;top=0;left=0;bottom=0;right=0;editable=1;overflow=hidden;whiteSpace=wrap;html=1;" parent="6jMnWPeVli86li3BOtDc-140" vertex="1">
          <mxGeometry width="30" height="30" as="geometry">
            <mxRectangle width="30" height="30" as="alternateBounds" />
          </mxGeometry>
        </mxCell>
        <mxCell id="6jMnWPeVli86li3BOtDc-142" value="password" style="shape=partialRectangle;connectable=0;fillColor=none;top=0;left=0;bottom=0;right=0;align=left;spacingLeft=6;overflow=hidden;whiteSpace=wrap;html=1;" parent="6jMnWPeVli86li3BOtDc-140" vertex="1">
          <mxGeometry x="30" width="150" height="30" as="geometry">
            <mxRectangle width="150" height="30" as="alternateBounds" />
          </mxGeometry>
        </mxCell>
        <mxCell id="6jMnWPeVli86li3BOtDc-143" value="" style="shape=tableRow;horizontal=0;startSize=0;swimlaneHead=0;swimlaneBody=0;fillColor=none;collapsible=0;dropTarget=0;points=[[0,0.5],[1,0.5]];portConstraint=eastwest;top=0;left=0;right=0;bottom=0;" parent="6jMnWPeVli86li3BOtDc-133" vertex="1">
          <mxGeometry y="120" width="180" height="30" as="geometry" />
        </mxCell>
        <mxCell id="6jMnWPeVli86li3BOtDc-144" value="" style="shape=partialRectangle;connectable=0;fillColor=none;top=0;left=0;bottom=0;right=0;editable=1;overflow=hidden;whiteSpace=wrap;html=1;" parent="6jMnWPeVli86li3BOtDc-143" vertex="1">
          <mxGeometry width="30" height="30" as="geometry">
            <mxRectangle width="30" height="30" as="alternateBounds" />
          </mxGeometry>
        </mxCell>
        <mxCell id="6jMnWPeVli86li3BOtDc-145" value="payment_method" style="shape=partialRectangle;connectable=0;fillColor=none;top=0;left=0;bottom=0;right=0;align=left;spacingLeft=6;overflow=hidden;whiteSpace=wrap;html=1;" parent="6jMnWPeVli86li3BOtDc-143" vertex="1">
          <mxGeometry x="30" width="150" height="30" as="geometry">
            <mxRectangle width="150" height="30" as="alternateBounds" />
          </mxGeometry>
        </mxCell>
        <mxCell id="6jMnWPeVli86li3BOtDc-146" value="" style="shape=tableRow;horizontal=0;startSize=0;swimlaneHead=0;swimlaneBody=0;fillColor=none;collapsible=0;dropTarget=0;points=[[0,0.5],[1,0.5]];portConstraint=eastwest;top=0;left=0;right=0;bottom=0;" parent="6jMnWPeVli86li3BOtDc-133" vertex="1">
          <mxGeometry y="150" width="180" height="30" as="geometry" />
        </mxCell>
        <mxCell id="6jMnWPeVli86li3BOtDc-147" value="" style="shape=partialRectangle;connectable=0;fillColor=none;top=0;left=0;bottom=0;right=0;editable=1;overflow=hidden;whiteSpace=wrap;html=1;" parent="6jMnWPeVli86li3BOtDc-146" vertex="1">
          <mxGeometry width="30" height="30" as="geometry">
            <mxRectangle width="30" height="30" as="alternateBounds" />
          </mxGeometry>
        </mxCell>
        <mxCell id="6jMnWPeVli86li3BOtDc-148" value="failed_login_attempts" style="shape=partialRectangle;connectable=0;fillColor=none;top=0;left=0;bottom=0;right=0;align=left;spacingLeft=6;overflow=hidden;whiteSpace=wrap;html=1;" parent="6jMnWPeVli86li3BOtDc-146" vertex="1">
          <mxGeometry x="30" width="150" height="30" as="geometry">
            <mxRectangle width="150" height="30" as="alternateBounds" />
          </mxGeometry>
        </mxCell>
        <mxCell id="6jMnWPeVli86li3BOtDc-149" value="" style="shape=tableRow;horizontal=0;startSize=0;swimlaneHead=0;swimlaneBody=0;fillColor=none;collapsible=0;dropTarget=0;points=[[0,0.5],[1,0.5]];portConstraint=eastwest;top=0;left=0;right=0;bottom=0;" parent="6jMnWPeVli86li3BOtDc-133" vertex="1">
          <mxGeometry y="180" width="180" height="30" as="geometry" />
        </mxCell>
        <mxCell id="6jMnWPeVli86li3BOtDc-150" value="FK" style="shape=partialRectangle;connectable=0;fillColor=none;top=0;left=0;bottom=0;right=0;editable=1;overflow=hidden;whiteSpace=wrap;html=1;" parent="6jMnWPeVli86li3BOtDc-149" vertex="1">
          <mxGeometry width="30" height="30" as="geometry">
            <mxRectangle width="30" height="30" as="alternateBounds" />
          </mxGeometry>
        </mxCell>
        <mxCell id="6jMnWPeVli86li3BOtDc-151" value="subscription_id" style="shape=partialRectangle;connectable=0;fillColor=none;top=0;left=0;bottom=0;right=0;align=left;spacingLeft=6;overflow=hidden;whiteSpace=wrap;html=1;" parent="6jMnWPeVli86li3BOtDc-149" vertex="1">
          <mxGeometry x="30" width="150" height="30" as="geometry">
            <mxRectangle width="150" height="30" as="alternateBounds" />
          </mxGeometry>
        </mxCell>
        <mxCell id="6jMnWPeVli86li3BOtDc-152" value="" style="shape=tableRow;horizontal=0;startSize=0;swimlaneHead=0;swimlaneBody=0;fillColor=none;collapsible=0;dropTarget=0;points=[[0,0.5],[1,0.5]];portConstraint=eastwest;top=0;left=0;right=0;bottom=0;" parent="6jMnWPeVli86li3BOtDc-133" vertex="1">
          <mxGeometry y="210" width="180" height="30" as="geometry" />
        </mxCell>
        <mxCell id="6jMnWPeVli86li3BOtDc-153" value="" style="shape=partialRectangle;connectable=0;fillColor=none;top=0;left=0;bottom=0;right=0;editable=1;overflow=hidden;whiteSpace=wrap;html=1;" parent="6jMnWPeVli86li3BOtDc-152" vertex="1">
          <mxGeometry width="30" height="30" as="geometry">
            <mxRectangle width="30" height="30" as="alternateBounds" />
          </mxGeometry>
        </mxCell>
        <mxCell id="6jMnWPeVli86li3BOtDc-154" value="role" style="shape=partialRectangle;connectable=0;fillColor=none;top=0;left=0;bottom=0;right=0;align=left;spacingLeft=6;overflow=hidden;whiteSpace=wrap;html=1;" parent="6jMnWPeVli86li3BOtDc-152" vertex="1">
          <mxGeometry x="30" width="150" height="30" as="geometry">
            <mxRectangle width="150" height="30" as="alternateBounds" />
          </mxGeometry>
        </mxCell>
        <mxCell id="6jMnWPeVli86li3BOtDc-155" value="trial_period" style="shape=table;startSize=30;container=1;collapsible=1;childLayout=tableLayout;fixedRows=1;rowLines=0;fontStyle=1;align=center;resizeLast=1;html=1;" parent="1" vertex="1">
          <mxGeometry x="600" y="-570" width="180" height="150" as="geometry" />
        </mxCell>
        <mxCell id="6jMnWPeVli86li3BOtDc-156" value="" style="shape=tableRow;horizontal=0;startSize=0;swimlaneHead=0;swimlaneBody=0;fillColor=none;collapsible=0;dropTarget=0;points=[[0,0.5],[1,0.5]];portConstraint=eastwest;top=0;left=0;right=0;bottom=1;" parent="6jMnWPeVli86li3BOtDc-155" vertex="1">
          <mxGeometry y="30" width="180" height="30" as="geometry" />
        </mxCell>
        <mxCell id="6jMnWPeVli86li3BOtDc-157" value="PK" style="shape=partialRectangle;connectable=0;fillColor=none;top=0;left=0;bottom=0;right=0;fontStyle=1;overflow=hidden;whiteSpace=wrap;html=1;" parent="6jMnWPeVli86li3BOtDc-156" vertex="1">
          <mxGeometry width="30" height="30" as="geometry">
            <mxRectangle width="30" height="30" as="alternateBounds" />
          </mxGeometry>
        </mxCell>
        <mxCell id="6jMnWPeVli86li3BOtDc-158" value="id" style="shape=partialRectangle;connectable=0;fillColor=none;top=0;left=0;bottom=0;right=0;align=left;spacingLeft=6;fontStyle=5;overflow=hidden;whiteSpace=wrap;html=1;" parent="6jMnWPeVli86li3BOtDc-156" vertex="1">
          <mxGeometry x="30" width="150" height="30" as="geometry">
            <mxRectangle width="150" height="30" as="alternateBounds" />
          </mxGeometry>
        </mxCell>
        <mxCell id="6jMnWPeVli86li3BOtDc-159" value="" style="shape=tableRow;horizontal=0;startSize=0;swimlaneHead=0;swimlaneBody=0;fillColor=none;collapsible=0;dropTarget=0;points=[[0,0.5],[1,0.5]];portConstraint=eastwest;top=0;left=0;right=0;bottom=0;" parent="6jMnWPeVli86li3BOtDc-155" vertex="1">
          <mxGeometry y="60" width="180" height="30" as="geometry" />
        </mxCell>
        <mxCell id="6jMnWPeVli86li3BOtDc-160" value="FK" style="shape=partialRectangle;connectable=0;fillColor=none;top=0;left=0;bottom=0;right=0;editable=1;overflow=hidden;whiteSpace=wrap;html=1;" parent="6jMnWPeVli86li3BOtDc-159" vertex="1">
          <mxGeometry width="30" height="30" as="geometry">
            <mxRectangle width="30" height="30" as="alternateBounds" />
          </mxGeometry>
        </mxCell>
        <mxCell id="6jMnWPeVli86li3BOtDc-161" value="user_id" style="shape=partialRectangle;connectable=0;fillColor=none;top=0;left=0;bottom=0;right=0;align=left;spacingLeft=6;overflow=hidden;whiteSpace=wrap;html=1;" parent="6jMnWPeVli86li3BOtDc-159" vertex="1">
          <mxGeometry x="30" width="150" height="30" as="geometry">
            <mxRectangle width="150" height="30" as="alternateBounds" />
          </mxGeometry>
        </mxCell>
        <mxCell id="6jMnWPeVli86li3BOtDc-162" value="" style="shape=tableRow;horizontal=0;startSize=0;swimlaneHead=0;swimlaneBody=0;fillColor=none;collapsible=0;dropTarget=0;points=[[0,0.5],[1,0.5]];portConstraint=eastwest;top=0;left=0;right=0;bottom=0;" parent="6jMnWPeVli86li3BOtDc-155" vertex="1">
          <mxGeometry y="90" width="180" height="30" as="geometry" />
        </mxCell>
        <mxCell id="6jMnWPeVli86li3BOtDc-163" value="" style="shape=partialRectangle;connectable=0;fillColor=none;top=0;left=0;bottom=0;right=0;editable=1;overflow=hidden;whiteSpace=wrap;html=1;" parent="6jMnWPeVli86li3BOtDc-162" vertex="1">
          <mxGeometry width="30" height="30" as="geometry">
            <mxRectangle width="30" height="30" as="alternateBounds" />
          </mxGeometry>
        </mxCell>
        <mxCell id="6jMnWPeVli86li3BOtDc-164" value="start_date" style="shape=partialRectangle;connectable=0;fillColor=none;top=0;left=0;bottom=0;right=0;align=left;spacingLeft=6;overflow=hidden;whiteSpace=wrap;html=1;" parent="6jMnWPeVli86li3BOtDc-162" vertex="1">
          <mxGeometry x="30" width="150" height="30" as="geometry">
            <mxRectangle width="150" height="30" as="alternateBounds" />
          </mxGeometry>
        </mxCell>
        <mxCell id="6jMnWPeVli86li3BOtDc-165" value="" style="shape=tableRow;horizontal=0;startSize=0;swimlaneHead=0;swimlaneBody=0;fillColor=none;collapsible=0;dropTarget=0;points=[[0,0.5],[1,0.5]];portConstraint=eastwest;top=0;left=0;right=0;bottom=0;" parent="6jMnWPeVli86li3BOtDc-155" vertex="1">
          <mxGeometry y="120" width="180" height="30" as="geometry" />
        </mxCell>
        <mxCell id="6jMnWPeVli86li3BOtDc-166" value="" style="shape=partialRectangle;connectable=0;fillColor=none;top=0;left=0;bottom=0;right=0;editable=1;overflow=hidden;whiteSpace=wrap;html=1;" parent="6jMnWPeVli86li3BOtDc-165" vertex="1">
          <mxGeometry width="30" height="30" as="geometry">
            <mxRectangle width="30" height="30" as="alternateBounds" />
          </mxGeometry>
        </mxCell>
        <mxCell id="6jMnWPeVli86li3BOtDc-167" value="end_date" style="shape=partialRectangle;connectable=0;fillColor=none;top=0;left=0;bottom=0;right=0;align=left;spacingLeft=6;overflow=hidden;whiteSpace=wrap;html=1;" parent="6jMnWPeVli86li3BOtDc-165" vertex="1">
          <mxGeometry x="30" width="150" height="30" as="geometry">
            <mxRectangle width="150" height="30" as="alternateBounds" />
          </mxGeometry>
        </mxCell>
        <mxCell id="6jMnWPeVli86li3BOtDc-168" value="user_invitation" style="shape=table;startSize=30;container=1;collapsible=1;childLayout=tableLayout;fixedRows=1;rowLines=0;fontStyle=1;align=center;resizeLast=1;html=1;" parent="1" vertex="1">
          <mxGeometry x="600" y="-850" width="180" height="180" as="geometry" />
        </mxCell>
        <mxCell id="6jMnWPeVli86li3BOtDc-169" value="" style="shape=tableRow;horizontal=0;startSize=0;swimlaneHead=0;swimlaneBody=0;fillColor=none;collapsible=0;dropTarget=0;points=[[0,0.5],[1,0.5]];portConstraint=eastwest;top=0;left=0;right=0;bottom=1;" parent="6jMnWPeVli86li3BOtDc-168" vertex="1">
          <mxGeometry y="30" width="180" height="30" as="geometry" />
        </mxCell>
        <mxCell id="6jMnWPeVli86li3BOtDc-170" value="PK" style="shape=partialRectangle;connectable=0;fillColor=none;top=0;left=0;bottom=0;right=0;fontStyle=1;overflow=hidden;whiteSpace=wrap;html=1;" parent="6jMnWPeVli86li3BOtDc-169" vertex="1">
          <mxGeometry width="30" height="30" as="geometry">
            <mxRectangle width="30" height="30" as="alternateBounds" />
          </mxGeometry>
        </mxCell>
        <mxCell id="6jMnWPeVli86li3BOtDc-171" value="id" style="shape=partialRectangle;connectable=0;fillColor=none;top=0;left=0;bottom=0;right=0;align=left;spacingLeft=6;fontStyle=5;overflow=hidden;whiteSpace=wrap;html=1;" parent="6jMnWPeVli86li3BOtDc-169" vertex="1">
          <mxGeometry x="30" width="150" height="30" as="geometry">
            <mxRectangle width="150" height="30" as="alternateBounds" />
          </mxGeometry>
        </mxCell>
        <mxCell id="6jMnWPeVli86li3BOtDc-172" value="" style="shape=tableRow;horizontal=0;startSize=0;swimlaneHead=0;swimlaneBody=0;fillColor=none;collapsible=0;dropTarget=0;points=[[0,0.5],[1,0.5]];portConstraint=eastwest;top=0;left=0;right=0;bottom=0;" parent="6jMnWPeVli86li3BOtDc-168" vertex="1">
          <mxGeometry y="60" width="180" height="30" as="geometry" />
        </mxCell>
        <mxCell id="6jMnWPeVli86li3BOtDc-173" value="FK" style="shape=partialRectangle;connectable=0;fillColor=none;top=0;left=0;bottom=0;right=0;editable=1;overflow=hidden;whiteSpace=wrap;html=1;" parent="6jMnWPeVli86li3BOtDc-172" vertex="1">
          <mxGeometry width="30" height="30" as="geometry">
            <mxRectangle width="30" height="30" as="alternateBounds" />
          </mxGeometry>
        </mxCell>
        <mxCell id="6jMnWPeVli86li3BOtDc-174" value="inviter_user_id" style="shape=partialRectangle;connectable=0;fillColor=none;top=0;left=0;bottom=0;right=0;align=left;spacingLeft=6;overflow=hidden;whiteSpace=wrap;html=1;" parent="6jMnWPeVli86li3BOtDc-172" vertex="1">
          <mxGeometry x="30" width="150" height="30" as="geometry">
            <mxRectangle width="150" height="30" as="alternateBounds" />
          </mxGeometry>
        </mxCell>
        <mxCell id="6jMnWPeVli86li3BOtDc-175" value="" style="shape=tableRow;horizontal=0;startSize=0;swimlaneHead=0;swimlaneBody=0;fillColor=none;collapsible=0;dropTarget=0;points=[[0,0.5],[1,0.5]];portConstraint=eastwest;top=0;left=0;right=0;bottom=0;" parent="6jMnWPeVli86li3BOtDc-168" vertex="1">
          <mxGeometry y="90" width="180" height="30" as="geometry" />
        </mxCell>
        <mxCell id="6jMnWPeVli86li3BOtDc-176" value="FK" style="shape=partialRectangle;connectable=0;fillColor=none;top=0;left=0;bottom=0;right=0;editable=1;overflow=hidden;whiteSpace=wrap;html=1;" parent="6jMnWPeVli86li3BOtDc-175" vertex="1">
          <mxGeometry width="30" height="30" as="geometry">
            <mxRectangle width="30" height="30" as="alternateBounds" />
          </mxGeometry>
        </mxCell>
        <mxCell id="6jMnWPeVli86li3BOtDc-177" value="invitee_user_id" style="shape=partialRectangle;connectable=0;fillColor=none;top=0;left=0;bottom=0;right=0;align=left;spacingLeft=6;overflow=hidden;whiteSpace=wrap;html=1;" parent="6jMnWPeVli86li3BOtDc-175" vertex="1">
          <mxGeometry x="30" width="150" height="30" as="geometry">
            <mxRectangle width="150" height="30" as="alternateBounds" />
          </mxGeometry>
        </mxCell>
        <mxCell id="6jMnWPeVli86li3BOtDc-178" value="" style="shape=tableRow;horizontal=0;startSize=0;swimlaneHead=0;swimlaneBody=0;fillColor=none;collapsible=0;dropTarget=0;points=[[0,0.5],[1,0.5]];portConstraint=eastwest;top=0;left=0;right=0;bottom=0;" parent="6jMnWPeVli86li3BOtDc-168" vertex="1">
          <mxGeometry y="120" width="180" height="30" as="geometry" />
        </mxCell>
        <mxCell id="6jMnWPeVli86li3BOtDc-179" value="" style="shape=partialRectangle;connectable=0;fillColor=none;top=0;left=0;bottom=0;right=0;editable=1;overflow=hidden;whiteSpace=wrap;html=1;" parent="6jMnWPeVli86li3BOtDc-178" vertex="1">
          <mxGeometry width="30" height="30" as="geometry">
            <mxRectangle width="30" height="30" as="alternateBounds" />
          </mxGeometry>
        </mxCell>
        <mxCell id="6jMnWPeVli86li3BOtDc-180" value="is_successful" style="shape=partialRectangle;connectable=0;fillColor=none;top=0;left=0;bottom=0;right=0;align=left;spacingLeft=6;overflow=hidden;whiteSpace=wrap;html=1;" parent="6jMnWPeVli86li3BOtDc-178" vertex="1">
          <mxGeometry x="30" width="150" height="30" as="geometry">
            <mxRectangle width="150" height="30" as="alternateBounds" />
          </mxGeometry>
        </mxCell>
        <mxCell id="6jMnWPeVli86li3BOtDc-181" value="" style="shape=tableRow;horizontal=0;startSize=0;swimlaneHead=0;swimlaneBody=0;fillColor=none;collapsible=0;dropTarget=0;points=[[0,0.5],[1,0.5]];portConstraint=eastwest;top=0;left=0;right=0;bottom=0;" parent="6jMnWPeVli86li3BOtDc-168" vertex="1">
          <mxGeometry y="150" width="180" height="30" as="geometry" />
        </mxCell>
        <mxCell id="6jMnWPeVli86li3BOtDc-182" value="" style="shape=partialRectangle;connectable=0;fillColor=none;top=0;left=0;bottom=0;right=0;editable=1;overflow=hidden;whiteSpace=wrap;html=1;" parent="6jMnWPeVli86li3BOtDc-181" vertex="1">
          <mxGeometry width="30" height="30" as="geometry">
            <mxRectangle width="30" height="30" as="alternateBounds" />
          </mxGeometry>
        </mxCell>
        <mxCell id="6jMnWPeVli86li3BOtDc-183" value="invitation_date" style="shape=partialRectangle;connectable=0;fillColor=none;top=0;left=0;bottom=0;right=0;align=left;spacingLeft=6;overflow=hidden;whiteSpace=wrap;html=1;" parent="6jMnWPeVli86li3BOtDc-181" vertex="1">
          <mxGeometry x="30" width="150" height="30" as="geometry">
            <mxRectangle width="150" height="30" as="alternateBounds" />
          </mxGeometry>
        </mxCell>
        <mxCell id="6jMnWPeVli86li3BOtDc-184" value="subscription" style="shape=table;startSize=30;container=1;collapsible=1;childLayout=tableLayout;fixedRows=1;rowLines=0;fontStyle=1;align=center;resizeLast=1;html=1;" parent="1" vertex="1">
          <mxGeometry x="600" y="-1300" width="180" height="120" as="geometry" />
        </mxCell>
        <mxCell id="6jMnWPeVli86li3BOtDc-185" value="" style="shape=tableRow;horizontal=0;startSize=0;swimlaneHead=0;swimlaneBody=0;fillColor=none;collapsible=0;dropTarget=0;points=[[0,0.5],[1,0.5]];portConstraint=eastwest;top=0;left=0;right=0;bottom=1;" parent="6jMnWPeVli86li3BOtDc-184" vertex="1">
          <mxGeometry y="30" width="180" height="30" as="geometry" />
        </mxCell>
        <mxCell id="6jMnWPeVli86li3BOtDc-186" value="PK" style="shape=partialRectangle;connectable=0;fillColor=none;top=0;left=0;bottom=0;right=0;fontStyle=1;overflow=hidden;whiteSpace=wrap;html=1;" parent="6jMnWPeVli86li3BOtDc-185" vertex="1">
          <mxGeometry width="30" height="30" as="geometry">
            <mxRectangle width="30" height="30" as="alternateBounds" />
          </mxGeometry>
        </mxCell>
        <mxCell id="6jMnWPeVli86li3BOtDc-187" value="id" style="shape=partialRectangle;connectable=0;fillColor=none;top=0;left=0;bottom=0;right=0;align=left;spacingLeft=6;fontStyle=5;overflow=hidden;whiteSpace=wrap;html=1;" parent="6jMnWPeVli86li3BOtDc-185" vertex="1">
          <mxGeometry x="30" width="150" height="30" as="geometry">
            <mxRectangle width="150" height="30" as="alternateBounds" />
          </mxGeometry>
        </mxCell>
        <mxCell id="6jMnWPeVli86li3BOtDc-188" value="" style="shape=tableRow;horizontal=0;startSize=0;swimlaneHead=0;swimlaneBody=0;fillColor=none;collapsible=0;dropTarget=0;points=[[0,0.5],[1,0.5]];portConstraint=eastwest;top=0;left=0;right=0;bottom=0;" parent="6jMnWPeVli86li3BOtDc-184" vertex="1">
          <mxGeometry y="60" width="180" height="30" as="geometry" />
        </mxCell>
        <mxCell id="6jMnWPeVli86li3BOtDc-189" value="" style="shape=partialRectangle;connectable=0;fillColor=none;top=0;left=0;bottom=0;right=0;editable=1;overflow=hidden;whiteSpace=wrap;html=1;" parent="6jMnWPeVli86li3BOtDc-188" vertex="1">
          <mxGeometry width="30" height="30" as="geometry">
            <mxRectangle width="30" height="30" as="alternateBounds" />
          </mxGeometry>
        </mxCell>
        <mxCell id="6jMnWPeVli86li3BOtDc-190" value="price" style="shape=partialRectangle;connectable=0;fillColor=none;top=0;left=0;bottom=0;right=0;align=left;spacingLeft=6;overflow=hidden;whiteSpace=wrap;html=1;" parent="6jMnWPeVli86li3BOtDc-188" vertex="1">
          <mxGeometry x="30" width="150" height="30" as="geometry">
            <mxRectangle width="150" height="30" as="alternateBounds" />
          </mxGeometry>
        </mxCell>
        <mxCell id="6jMnWPeVli86li3BOtDc-191" value="" style="shape=tableRow;horizontal=0;startSize=0;swimlaneHead=0;swimlaneBody=0;fillColor=none;collapsible=0;dropTarget=0;points=[[0,0.5],[1,0.5]];portConstraint=eastwest;top=0;left=0;right=0;bottom=0;" parent="6jMnWPeVli86li3BOtDc-184" vertex="1">
          <mxGeometry y="90" width="180" height="30" as="geometry" />
        </mxCell>
        <mxCell id="6jMnWPeVli86li3BOtDc-192" value="" style="shape=partialRectangle;connectable=0;fillColor=none;top=0;left=0;bottom=0;right=0;editable=1;overflow=hidden;whiteSpace=wrap;html=1;" parent="6jMnWPeVli86li3BOtDc-191" vertex="1">
          <mxGeometry width="30" height="30" as="geometry">
            <mxRectangle width="30" height="30" as="alternateBounds" />
          </mxGeometry>
        </mxCell>
        <mxCell id="6jMnWPeVli86li3BOtDc-193" value="quality" style="shape=partialRectangle;connectable=0;fillColor=none;top=0;left=0;bottom=0;right=0;align=left;spacingLeft=6;overflow=hidden;whiteSpace=wrap;html=1;" parent="6jMnWPeVli86li3BOtDc-191" vertex="1">
          <mxGeometry x="30" width="150" height="30" as="geometry">
            <mxRectangle width="150" height="30" as="alternateBounds" />
          </mxGeometry>
        </mxCell>
        <mxCell id="6jMnWPeVli86li3BOtDc-194" style="edgeStyle=elbowEdgeStyle;rounded=0;orthogonalLoop=1;jettySize=auto;html=1;endArrow=ERmandOne;endFill=0;startArrow=ERzeroToMany;startFill=0;" parent="1" source="6jMnWPeVli86li3BOtDc-149" target="6jMnWPeVli86li3BOtDc-185" edge="1">
          <mxGeometry relative="1" as="geometry">
            <Array as="points">
              <mxPoint x="550" y="-1110" />
            </Array>
            <mxPoint x="480" y="-970" as="sourcePoint" />
            <mxPoint x="490" y="-1230" as="targetPoint" />
          </mxGeometry>
        </mxCell>
        <mxCell id="6jMnWPeVli86li3BOtDc-195" style="edgeStyle=orthogonalEdgeStyle;rounded=0;orthogonalLoop=1;jettySize=auto;html=1;exitX=1;exitY=0.5;exitDx=0;exitDy=0;endArrow=ERoneToMany;endFill=0;startArrow=ERmandOne;startFill=0;" parent="1" source="6jMnWPeVli86li3BOtDc-134" target="6jMnWPeVli86li3BOtDc-87" edge="1">
          <mxGeometry relative="1" as="geometry" />
        </mxCell>
        <mxCell id="6jMnWPeVli86li3BOtDc-196" style="edgeStyle=orthogonalEdgeStyle;rounded=0;orthogonalLoop=1;jettySize=auto;html=1;exitX=1;exitY=0.5;exitDx=0;exitDy=0;entryX=1;entryY=0.5;entryDx=0;entryDy=0;endArrow=ERzeroToOne;endFill=0;startArrow=ERmandOne;startFill=0;" parent="1" source="6jMnWPeVli86li3BOtDc-134" target="6jMnWPeVli86li3BOtDc-172" edge="1">
          <mxGeometry relative="1" as="geometry" />
        </mxCell>
        <mxCell id="6jMnWPeVli86li3BOtDc-197" style="edgeStyle=orthogonalEdgeStyle;rounded=0;orthogonalLoop=1;jettySize=auto;html=1;exitX=1;exitY=0.5;exitDx=0;exitDy=0;entryX=1;entryY=0.5;entryDx=0;entryDy=0;endArrow=ERzeroToOne;endFill=0;" parent="1" source="6jMnWPeVli86li3BOtDc-134" target="6jMnWPeVli86li3BOtDc-175" edge="1">
          <mxGeometry relative="1" as="geometry" />
        </mxCell>
        <mxCell id="6jMnWPeVli86li3BOtDc-198" style="edgeStyle=orthogonalEdgeStyle;rounded=0;orthogonalLoop=1;jettySize=auto;html=1;exitX=1;exitY=0.5;exitDx=0;exitDy=0;entryX=1;entryY=0.5;entryDx=0;entryDy=0;endArrow=ERzeroToOne;endFill=0;" parent="1" source="6jMnWPeVli86li3BOtDc-134" target="6jMnWPeVli86li3BOtDc-159" edge="1">
          <mxGeometry relative="1" as="geometry" />
        </mxCell>
        <mxCell id="6jMnWPeVli86li3BOtDc-199" style="edgeStyle=elbowEdgeStyle;rounded=0;orthogonalLoop=1;jettySize=auto;html=1;entryX=0;entryY=0.5;entryDx=0;entryDy=0;startArrow=ERmandOne;startFill=0;endArrow=ERmandOne;endFill=0;" parent="1" source="6jMnWPeVli86li3BOtDc-102" target="6jMnWPeVli86li3BOtDc-120" edge="1">
          <mxGeometry relative="1" as="geometry">
            <Array as="points">
              <mxPoint x="1090" y="-1260" />
            </Array>
          </mxGeometry>
        </mxCell>
        <mxCell id="6jMnWPeVli86li3BOtDc-200" style="edgeStyle=orthogonalEdgeStyle;rounded=0;orthogonalLoop=1;jettySize=auto;html=1;exitX=1;exitY=0.5;exitDx=0;exitDy=0;entryX=0;entryY=0.5;entryDx=0;entryDy=0;endArrow=ERzeroToMany;endFill=0;startArrow=ERmandOne;startFill=0;" parent="1" source="6jMnWPeVli86li3BOtDc-84" target="6jMnWPeVli86li3BOtDc-113" edge="1">
          <mxGeometry relative="1" as="geometry">
            <Array as="points">
              <mxPoint x="1330" y="-1105" />
              <mxPoint x="1330" y="-840" />
              <mxPoint x="1070" y="-840" />
              <mxPoint x="1070" y="-405" />
            </Array>
          </mxGeometry>
        </mxCell>
        <mxCell id="6jMnWPeVli86li3BOtDc-201" style="edgeStyle=orthogonalEdgeStyle;rounded=0;orthogonalLoop=1;jettySize=auto;html=1;exitX=1;exitY=0.5;exitDx=0;exitDy=0;entryX=0;entryY=0.5;entryDx=0;entryDy=0;endArrow=ERzeroToMany;endFill=0;" parent="1" source="6jMnWPeVli86li3BOtDc-84" target="6jMnWPeVli86li3BOtDc-106" edge="1">
          <mxGeometry relative="1" as="geometry">
            <Array as="points">
              <mxPoint x="1330" y="-1105" />
              <mxPoint x="1330" y="-840" />
              <mxPoint x="1070" y="-840" />
              <mxPoint x="1070" y="-545" />
            </Array>
          </mxGeometry>
        </mxCell>
        <mxCell id="6jMnWPeVli86li3BOtDc-202" style="edgeStyle=orthogonalEdgeStyle;rounded=0;orthogonalLoop=1;jettySize=auto;html=1;exitX=1;exitY=0.5;exitDx=0;exitDy=0;entryX=0;entryY=0.5;entryDx=0;entryDy=0;startArrow=ERoneToMany;startFill=0;endArrow=ERmandOne;endFill=0;" parent="1" source="6jMnWPeVli86li3BOtDc-109" target="6jMnWPeVli86li3BOtDc-43" edge="1">
          <mxGeometry relative="1" as="geometry" />
        </mxCell>
        <mxCell id="6jMnWPeVli86li3BOtDc-203" style="edgeStyle=orthogonalEdgeStyle;rounded=0;orthogonalLoop=1;jettySize=auto;html=1;exitX=1;exitY=0.5;exitDx=0;exitDy=0;endArrow=ERmandOne;endFill=0;startArrow=ERoneToMany;startFill=0;" parent="1" source="6jMnWPeVli86li3BOtDc-116" target="6jMnWPeVli86li3BOtDc-57" edge="1">
          <mxGeometry relative="1" as="geometry" />
        </mxCell>
        <mxCell id="6jMnWPeVli86li3BOtDc-204" style="edgeStyle=orthogonalEdgeStyle;rounded=0;orthogonalLoop=1;jettySize=auto;html=1;exitX=1;exitY=0.5;exitDx=0;exitDy=0;entryX=0;entryY=0.5;entryDx=0;entryDy=0;startArrow=ERoneToMany;startFill=0;endArrow=ERoneToMany;endFill=0;" parent="1" source="6jMnWPeVli86li3BOtDc-43" target="6jMnWPeVli86li3BOtDc-39" edge="1">
          <mxGeometry relative="1" as="geometry" />
        </mxCell>
        <mxCell id="6jMnWPeVli86li3BOtDc-205" style="edgeStyle=orthogonalEdgeStyle;rounded=0;orthogonalLoop=1;jettySize=auto;html=1;exitX=1;exitY=0.5;exitDx=0;exitDy=0;entryX=0;entryY=0.5;entryDx=0;entryDy=0;startArrow=ERmandOne;startFill=0;endArrow=ERoneToMany;endFill=0;" parent="1" source="6jMnWPeVli86li3BOtDc-57" target="6jMnWPeVli86li3BOtDc-53" edge="1">
          <mxGeometry relative="1" as="geometry" />
        </mxCell>
        <mxCell id="6jMnWPeVli86li3BOtDc-206" style="edgeStyle=orthogonalEdgeStyle;rounded=0;orthogonalLoop=1;jettySize=auto;html=1;exitX=1;exitY=0.5;exitDx=0;exitDy=0;entryX=1;entryY=0.5;entryDx=0;entryDy=0;startArrow=ERmandOne;startFill=0;endArrow=ERzeroToMany;endFill=0;" parent="1" source="6jMnWPeVli86li3BOtDc-2" target="6jMnWPeVli86li3BOtDc-50" edge="1">
          <mxGeometry relative="1" as="geometry">
            <Array as="points">
              <mxPoint x="2180" y="-1105" />
              <mxPoint x="2180" y="-405" />
            </Array>
          </mxGeometry>
        </mxCell>
        <mxCell id="6jMnWPeVli86li3BOtDc-207" style="edgeStyle=orthogonalEdgeStyle;rounded=0;orthogonalLoop=1;jettySize=auto;html=1;exitX=1;exitY=0.5;exitDx=0;exitDy=0;entryX=1;entryY=0.5;entryDx=0;entryDy=0;endArrow=ERzeroToMany;endFill=0;" parent="1" source="6jMnWPeVli86li3BOtDc-2" target="6jMnWPeVli86li3BOtDc-36" edge="1">
          <mxGeometry relative="1" as="geometry">
            <Array as="points">
              <mxPoint x="2180" y="-1105" />
              <mxPoint x="2180" y="-539" />
            </Array>
          </mxGeometry>
        </mxCell>
        <mxCell id="6jMnWPeVli86li3BOtDc-208" style="edgeStyle=orthogonalEdgeStyle;rounded=0;orthogonalLoop=1;jettySize=auto;html=1;exitX=1;exitY=0.5;exitDx=0;exitDy=0;entryX=0;entryY=0.5;entryDx=0;entryDy=0;endArrow=ERzeroToMany;endFill=0;" parent="1" source="6jMnWPeVli86li3BOtDc-84" target="6jMnWPeVli86li3BOtDc-64" edge="1">
          <mxGeometry relative="1" as="geometry" />
        </mxCell>
        <mxCell id="6jMnWPeVli86li3BOtDc-209" style="edgeStyle=orthogonalEdgeStyle;rounded=0;orthogonalLoop=1;jettySize=auto;html=1;exitX=0;exitY=0.5;exitDx=0;exitDy=0;entryX=1;entryY=0.5;entryDx=0;entryDy=0;startArrow=ERmandOne;startFill=0;endArrow=ERoneToMany;endFill=0;" parent="1" source="6jMnWPeVli86li3BOtDc-2" target="6jMnWPeVli86li3BOtDc-67" edge="1">
          <mxGeometry relative="1" as="geometry" />
        </mxCell>
        <mxCell id="6jMnWPeVli86li3BOtDc-210" style="edgeStyle=elbowEdgeStyle;rounded=0;orthogonalLoop=1;jettySize=auto;html=1;exitX=0;exitY=0.5;exitDx=0;exitDy=0;entryX=1;entryY=0.5;entryDx=0;entryDy=0;endArrow=ERzeroToMany;endFill=0;" parent="1" source="6jMnWPeVli86li3BOtDc-2" target="6jMnWPeVli86li3BOtDc-127" edge="1">
          <mxGeometry relative="1" as="geometry" />
        </mxCell>
        <mxCell id="6jMnWPeVli86li3BOtDc-211" style="edgeStyle=elbowEdgeStyle;rounded=0;orthogonalLoop=1;jettySize=auto;html=1;exitX=0;exitY=0.5;exitDx=0;exitDy=0;entryX=1;entryY=0.5;entryDx=0;entryDy=0;endArrow=ERoneToMany;endFill=0;" parent="1" source="6jMnWPeVli86li3BOtDc-2" target="6jMnWPeVli86li3BOtDc-217" edge="1">
          <mxGeometry relative="1" as="geometry" />
        </mxCell>
        <mxCell id="6jMnWPeVli86li3BOtDc-212" style="edgeStyle=orthogonalEdgeStyle;rounded=0;orthogonalLoop=1;jettySize=auto;html=1;exitX=1;exitY=0.5;exitDx=0;exitDy=0;entryX=0;entryY=0.5;entryDx=0;entryDy=0;endArrow=none;endFill=0;startArrow=ERoneToMany;startFill=0;" parent="1" source="6jMnWPeVli86li3BOtDc-74" target="6jMnWPeVli86li3BOtDc-2" edge="1">
          <mxGeometry relative="1" as="geometry" />
        </mxCell>
        <mxCell id="6jMnWPeVli86li3BOtDc-213" style="edgeStyle=orthogonalEdgeStyle;rounded=0;orthogonalLoop=1;jettySize=auto;html=1;exitX=1;exitY=0.5;exitDx=0;exitDy=0;entryX=0;entryY=0.5;entryDx=0;entryDy=0;endArrow=ERzeroToMany;endFill=0;" parent="1" source="6jMnWPeVli86li3BOtDc-84" target="6jMnWPeVli86li3BOtDc-71" edge="1">
          <mxGeometry relative="1" as="geometry" />
        </mxCell>
        <mxCell id="6jMnWPeVli86li3BOtDc-214" style="edgeStyle=orthogonalEdgeStyle;rounded=0;orthogonalLoop=1;jettySize=auto;html=1;exitX=1;exitY=0.5;exitDx=0;exitDy=0;entryX=0;entryY=0.5;entryDx=0;entryDy=0;startArrow=ERmandOne;startFill=0;endArrow=ERoneToMany;endFill=0;" parent="1" source="6jMnWPeVli86li3BOtDc-120" target="6jMnWPeVli86li3BOtDc-130" edge="1">
          <mxGeometry relative="1" as="geometry" />
        </mxCell>
        <mxCell id="6jMnWPeVli86li3BOtDc-215" style="edgeStyle=elbowEdgeStyle;rounded=0;orthogonalLoop=1;jettySize=auto;html=1;exitX=1;exitY=0.5;exitDx=0;exitDy=0;entryX=1;entryY=0.5;entryDx=0;entryDy=0;endArrow=ERmandOne;endFill=0;" parent="1" source="6jMnWPeVli86li3BOtDc-120" target="6jMnWPeVli86li3BOtDc-32" edge="1">
          <mxGeometry relative="1" as="geometry">
            <Array as="points">
              <mxPoint x="1920" y="-1180" />
            </Array>
          </mxGeometry>
        </mxCell>
        <mxCell id="6jMnWPeVli86li3BOtDc-216" value="media_quality" style="shape=table;startSize=30;container=1;collapsible=1;childLayout=tableLayout;fixedRows=1;rowLines=0;fontStyle=1;align=center;resizeLast=1;html=1;" parent="1" vertex="1">
          <mxGeometry x="1421" y="-805" width="179" height="90" as="geometry" />
        </mxCell>
        <mxCell id="6jMnWPeVli86li3BOtDc-217" value="" style="shape=tableRow;horizontal=0;startSize=0;swimlaneHead=0;swimlaneBody=0;fillColor=none;collapsible=0;dropTarget=0;points=[[0,0.5],[1,0.5]];portConstraint=eastwest;top=0;left=0;right=0;bottom=1;" parent="6jMnWPeVli86li3BOtDc-216" vertex="1">
          <mxGeometry y="30" width="179" height="30" as="geometry" />
        </mxCell>
        <mxCell id="6jMnWPeVli86li3BOtDc-218" value="PK,FK" style="shape=partialRectangle;connectable=0;fillColor=none;top=0;left=0;bottom=0;right=0;fontStyle=1;overflow=hidden;whiteSpace=wrap;html=1;" parent="6jMnWPeVli86li3BOtDc-217" vertex="1">
          <mxGeometry width="60" height="30" as="geometry">
            <mxRectangle width="60" height="30" as="alternateBounds" />
          </mxGeometry>
        </mxCell>
        <mxCell id="6jMnWPeVli86li3BOtDc-219" value="media_id" style="shape=partialRectangle;connectable=0;fillColor=none;top=0;left=0;bottom=0;right=0;align=left;spacingLeft=6;fontStyle=5;overflow=hidden;whiteSpace=wrap;html=1;" parent="6jMnWPeVli86li3BOtDc-217" vertex="1">
          <mxGeometry x="60" width="119" height="30" as="geometry">
            <mxRectangle width="119" height="30" as="alternateBounds" />
          </mxGeometry>
        </mxCell>
        <mxCell id="6jMnWPeVli86li3BOtDc-220" value="" style="shape=tableRow;horizontal=0;startSize=0;swimlaneHead=0;swimlaneBody=0;fillColor=none;collapsible=0;dropTarget=0;points=[[0,0.5],[1,0.5]];portConstraint=eastwest;top=0;left=0;right=0;bottom=0;" parent="6jMnWPeVli86li3BOtDc-216" vertex="1">
          <mxGeometry y="60" width="179" height="30" as="geometry" />
        </mxCell>
        <mxCell id="6jMnWPeVli86li3BOtDc-221" value="" style="shape=partialRectangle;connectable=0;fillColor=none;top=0;left=0;bottom=0;right=0;editable=1;overflow=hidden;whiteSpace=wrap;html=1;" parent="6jMnWPeVli86li3BOtDc-220" vertex="1">
          <mxGeometry width="60" height="30" as="geometry">
            <mxRectangle width="60" height="30" as="alternateBounds" />
          </mxGeometry>
        </mxCell>
        <mxCell id="6jMnWPeVli86li3BOtDc-222" value="quality" style="shape=partialRectangle;connectable=0;fillColor=none;top=0;left=0;bottom=0;right=0;align=left;spacingLeft=6;overflow=hidden;whiteSpace=wrap;html=1;" parent="6jMnWPeVli86li3BOtDc-220" vertex="1">
          <mxGeometry x="60" width="119" height="30" as="geometry">
            <mxRectangle width="119" height="30" as="alternateBounds" />
          </mxGeometry>
        </mxCell>
        <mxCell id="a2_5d-jZeDkUf_Bdygnd-1" value="API Gateway" style="shape=rectangle;whiteSpace=wrap;html=1;fillColor=#dae8fc;" vertex="1" parent="1">
          <mxGeometry x="1090" y="-1160" width="200" height="60" as="geometry" />
        </mxCell>
        <mxCell id="a2_5d-jZeDkUf_Bdygnd-2" value="Auth Routes" style="shape=rectangle;whiteSpace=wrap;html=1;fillColor=#fff2cc;verticalAlign=top;" vertex="1" parent="1">
          <mxGeometry x="980" y="-1050" width="420" height="180" as="geometry" />
        </mxCell>
        <mxCell id="a2_5d-jZeDkUf_Bdygnd-3" value="POST /auth/register" style="ellipse;whiteSpace=wrap;html=1;" vertex="1" parent="1">
          <mxGeometry x="994" y="-1020" width="166" height="30" as="geometry" />
        </mxCell>
        <mxCell id="a2_5d-jZeDkUf_Bdygnd-4" value="POST /auth/login" style="ellipse;whiteSpace=wrap;html=1;" vertex="1" parent="1">
          <mxGeometry x="994" y="-985" width="166" height="30" as="geometry" />
        </mxCell>
        <mxCell id="a2_5d-jZeDkUf_Bdygnd-5" value="POST /auth/logout" style="ellipse;whiteSpace=wrap;html=1;" vertex="1" parent="1">
          <mxGeometry x="994" y="-950" width="166" height="30" as="geometry" />
        </mxCell>
        <mxCell id="a2_5d-jZeDkUf_Bdygnd-6" value="POST /auth/password-reset" style="ellipse;whiteSpace=wrap;html=1;" vertex="1" parent="1">
          <mxGeometry x="994" y="-910" width="166" height="30" as="geometry" />
        </mxCell>
        <mxCell id="a2_5d-jZeDkUf_Bdygnd-7" value="User Routes" style="shape=rectangle;whiteSpace=wrap;html=1;fillColor=#d5e8d4;verticalAlign=top;" vertex="1" parent="1">
          <mxGeometry x="980" y="-850" width="420" height="170" as="geometry" />
        </mxCell>
        <mxCell id="a2_5d-jZeDkUf_Bdygnd-8" value="GET /users" style="ellipse;whiteSpace=wrap;html=1;" vertex="1" parent="1">
          <mxGeometry x="994" y="-820" width="166" height="30" as="geometry" />
        </mxCell>
        <mxCell id="a2_5d-jZeDkUf_Bdygnd-9" value="GET /users/{user_id}" style="ellipse;whiteSpace=wrap;html=1;" vertex="1" parent="1">
          <mxGeometry x="994" y="-785" width="166" height="30" as="geometry" />
        </mxCell>
        <mxCell id="a2_5d-jZeDkUf_Bdygnd-10" value="PUT /users/{user_id}" style="ellipse;whiteSpace=wrap;html=1;" vertex="1" parent="1">
          <mxGeometry x="994" y="-750" width="166" height="30" as="geometry" />
        </mxCell>
        <mxCell id="a2_5d-jZeDkUf_Bdygnd-11" value="DELETE /users/{user_id}" style="ellipse;whiteSpace=wrap;html=1;" vertex="1" parent="1">
          <mxGeometry x="994" y="-714" width="166" height="30" as="geometry" />
        </mxCell>
        <mxCell id="a2_5d-jZeDkUf_Bdygnd-12" value="Profile Routes" style="shape=rectangle;whiteSpace=wrap;html=1;fillColor=#f8cecc;verticalAlign=top;" vertex="1" parent="1">
          <mxGeometry x="900" y="-650" width="580" height="230" as="geometry" />
        </mxCell>
        <mxCell id="a2_5d-jZeDkUf_Bdygnd-13" style="edgeStyle=orthogonalEdgeStyle;rounded=0;orthogonalLoop=1;jettySize=auto;html=1;exitX=1;exitY=0.5;exitDx=0;exitDy=0;" edge="1" parent="1" source="a2_5d-jZeDkUf_Bdygnd-14" target="a2_5d-jZeDkUf_Bdygnd-56">
          <mxGeometry relative="1" as="geometry" />
        </mxCell>
        <mxCell id="a2_5d-jZeDkUf_Bdygnd-14" value="GET /users/{user_id}/profiles" style="ellipse;whiteSpace=wrap;html=1;" vertex="1" parent="1">
          <mxGeometry x="910" y="-620" width="250" height="30" as="geometry" />
        </mxCell>
        <mxCell id="a2_5d-jZeDkUf_Bdygnd-15" style="edgeStyle=orthogonalEdgeStyle;rounded=0;orthogonalLoop=1;jettySize=auto;html=1;entryX=0;entryY=0.5;entryDx=0;entryDy=0;" edge="1" parent="1" source="a2_5d-jZeDkUf_Bdygnd-16" target="a2_5d-jZeDkUf_Bdygnd-57">
          <mxGeometry relative="1" as="geometry" />
        </mxCell>
        <mxCell id="a2_5d-jZeDkUf_Bdygnd-16" value="POST /users/{user_id}/profiles" style="ellipse;whiteSpace=wrap;html=1;" vertex="1" parent="1">
          <mxGeometry x="910" y="-580" width="250" height="30" as="geometry" />
        </mxCell>
        <mxCell id="a2_5d-jZeDkUf_Bdygnd-17" style="edgeStyle=orthogonalEdgeStyle;rounded=0;orthogonalLoop=1;jettySize=auto;html=1;entryX=0;entryY=0.5;entryDx=0;entryDy=0;" edge="1" parent="1" source="a2_5d-jZeDkUf_Bdygnd-18" target="a2_5d-jZeDkUf_Bdygnd-58">
          <mxGeometry relative="1" as="geometry" />
        </mxCell>
        <mxCell id="a2_5d-jZeDkUf_Bdygnd-18" value="GET /users/{user_id}/profiles/{profile_id}&amp;nbsp;" style="ellipse;whiteSpace=wrap;html=1;" vertex="1" parent="1">
          <mxGeometry x="910" y="-540" width="250" height="30" as="geometry" />
        </mxCell>
        <mxCell id="a2_5d-jZeDkUf_Bdygnd-19" style="edgeStyle=orthogonalEdgeStyle;rounded=0;orthogonalLoop=1;jettySize=auto;html=1;entryX=0;entryY=0.5;entryDx=0;entryDy=0;" edge="1" parent="1" source="a2_5d-jZeDkUf_Bdygnd-20" target="a2_5d-jZeDkUf_Bdygnd-59">
          <mxGeometry relative="1" as="geometry" />
        </mxCell>
        <mxCell id="a2_5d-jZeDkUf_Bdygnd-20" value="PUT /users/{user_id}/profiles/{profile_id}" style="ellipse;whiteSpace=wrap;html=1;" vertex="1" parent="1">
          <mxGeometry x="910" y="-500" width="250" height="30" as="geometry" />
        </mxCell>
        <mxCell id="a2_5d-jZeDkUf_Bdygnd-21" style="edgeStyle=orthogonalEdgeStyle;rounded=0;orthogonalLoop=1;jettySize=auto;html=1;entryX=0;entryY=0.5;entryDx=0;entryDy=0;" edge="1" parent="1" source="a2_5d-jZeDkUf_Bdygnd-22" target="a2_5d-jZeDkUf_Bdygnd-60">
          <mxGeometry relative="1" as="geometry" />
        </mxCell>
        <mxCell id="a2_5d-jZeDkUf_Bdygnd-22" value="DELETE /users/{user_id}/profiles/{profile_id}" style="ellipse;whiteSpace=wrap;html=1;" vertex="1" parent="1">
          <mxGeometry x="910" y="-460" width="250" height="30" as="geometry" />
        </mxCell>
        <mxCell id="a2_5d-jZeDkUf_Bdygnd-23" value="Content Routes" style="shape=rectangle;whiteSpace=wrap;html=1;fillColor=#e1d5e7;verticalAlign=top;" vertex="1" parent="1">
          <mxGeometry x="900" y="-380" width="580" height="190" as="geometry" />
        </mxCell>
        <mxCell id="a2_5d-jZeDkUf_Bdygnd-24" style="edgeStyle=orthogonalEdgeStyle;rounded=0;orthogonalLoop=1;jettySize=auto;html=1;exitX=1;exitY=0.5;exitDx=0;exitDy=0;entryX=0;entryY=0.5;entryDx=0;entryDy=0;" edge="1" parent="1" source="a2_5d-jZeDkUf_Bdygnd-25" target="a2_5d-jZeDkUf_Bdygnd-61">
          <mxGeometry relative="1" as="geometry" />
        </mxCell>
        <mxCell id="a2_5d-jZeDkUf_Bdygnd-25" value="GET /content" style="ellipse;whiteSpace=wrap;html=1;" vertex="1" parent="1">
          <mxGeometry x="910" y="-350" width="250" height="30" as="geometry" />
        </mxCell>
        <mxCell id="a2_5d-jZeDkUf_Bdygnd-26" value="GET /content/{content_id}" style="ellipse;whiteSpace=wrap;html=1;" vertex="1" parent="1">
          <mxGeometry x="910" y="-310" width="250" height="30" as="geometry" />
        </mxCell>
        <mxCell id="a2_5d-jZeDkUf_Bdygnd-27" style="edgeStyle=orthogonalEdgeStyle;rounded=0;orthogonalLoop=1;jettySize=auto;html=1;exitX=1;exitY=0.5;exitDx=0;exitDy=0;entryX=0;entryY=0.5;entryDx=0;entryDy=0;" edge="1" parent="1" source="a2_5d-jZeDkUf_Bdygnd-28" target="a2_5d-jZeDkUf_Bdygnd-63">
          <mxGeometry relative="1" as="geometry" />
        </mxCell>
        <mxCell id="a2_5d-jZeDkUf_Bdygnd-28" value="GET /content/recommendations" style="ellipse;whiteSpace=wrap;html=1;" vertex="1" parent="1">
          <mxGeometry x="910" y="-270" width="250" height="30" as="geometry" />
        </mxCell>
        <mxCell id="a2_5d-jZeDkUf_Bdygnd-29" style="edgeStyle=orthogonalEdgeStyle;rounded=0;orthogonalLoop=1;jettySize=auto;html=1;exitX=1;exitY=0.5;exitDx=0;exitDy=0;entryX=0;entryY=0.5;entryDx=0;entryDy=0;" edge="1" parent="1" source="a2_5d-jZeDkUf_Bdygnd-30" target="a2_5d-jZeDkUf_Bdygnd-64">
          <mxGeometry relative="1" as="geometry" />
        </mxCell>
        <mxCell id="a2_5d-jZeDkUf_Bdygnd-30" value="GET /content/search" style="ellipse;whiteSpace=wrap;html=1;" vertex="1" parent="1">
          <mxGeometry x="910" y="-230" width="250" height="30" as="geometry" />
        </mxCell>
        <mxCell id="a2_5d-jZeDkUf_Bdygnd-31" value="Subscription Routes" style="shape=rectangle;whiteSpace=wrap;html=1;fillColor=#d9e8e1;verticalAlign=top;" vertex="1" parent="1">
          <mxGeometry x="900" y="-160" width="580" height="210" as="geometry" />
        </mxCell>
        <mxCell id="a2_5d-jZeDkUf_Bdygnd-32" style="edgeStyle=orthogonalEdgeStyle;rounded=0;orthogonalLoop=1;jettySize=auto;html=1;exitX=1;exitY=0.5;exitDx=0;exitDy=0;entryX=0;entryY=0.5;entryDx=0;entryDy=0;" edge="1" parent="1" source="a2_5d-jZeDkUf_Bdygnd-33" target="a2_5d-jZeDkUf_Bdygnd-66">
          <mxGeometry relative="1" as="geometry" />
        </mxCell>
        <mxCell id="a2_5d-jZeDkUf_Bdygnd-33" value="GET /subscriptions" style="ellipse;whiteSpace=wrap;html=1;" vertex="1" parent="1">
          <mxGeometry x="910" y="-120" width="250" height="30" as="geometry" />
        </mxCell>
        <mxCell id="a2_5d-jZeDkUf_Bdygnd-34" style="edgeStyle=orthogonalEdgeStyle;rounded=0;orthogonalLoop=1;jettySize=auto;html=1;exitX=1;exitY=0.5;exitDx=0;exitDy=0;entryX=0;entryY=0.5;entryDx=0;entryDy=0;" edge="1" parent="1" source="a2_5d-jZeDkUf_Bdygnd-35" target="a2_5d-jZeDkUf_Bdygnd-67">
          <mxGeometry relative="1" as="geometry" />
        </mxCell>
        <mxCell id="a2_5d-jZeDkUf_Bdygnd-35" value="POST /subscriptions" style="ellipse;whiteSpace=wrap;html=1;" vertex="1" parent="1">
          <mxGeometry x="910" y="-80" width="250" height="30" as="geometry" />
        </mxCell>
        <mxCell id="a2_5d-jZeDkUf_Bdygnd-36" style="edgeStyle=orthogonalEdgeStyle;rounded=0;orthogonalLoop=1;jettySize=auto;html=1;exitX=1;exitY=0.5;exitDx=0;exitDy=0;entryX=0;entryY=0.5;entryDx=0;entryDy=0;" edge="1" parent="1" source="a2_5d-jZeDkUf_Bdygnd-37" target="a2_5d-jZeDkUf_Bdygnd-68">
          <mxGeometry relative="1" as="geometry" />
        </mxCell>
        <mxCell id="a2_5d-jZeDkUf_Bdygnd-37" value="PUT /subscriptions/{subscription_id}" style="ellipse;whiteSpace=wrap;html=1;" vertex="1" parent="1">
          <mxGeometry x="910" y="-40" width="250" height="30" as="geometry" />
        </mxCell>
        <mxCell id="a2_5d-jZeDkUf_Bdygnd-38" style="edgeStyle=orthogonalEdgeStyle;rounded=0;orthogonalLoop=1;jettySize=auto;html=1;exitX=1;exitY=0.5;exitDx=0;exitDy=0;entryX=0;entryY=0.5;entryDx=0;entryDy=0;" edge="1" parent="1" source="a2_5d-jZeDkUf_Bdygnd-39" target="a2_5d-jZeDkUf_Bdygnd-69">
          <mxGeometry relative="1" as="geometry" />
        </mxCell>
        <mxCell id="a2_5d-jZeDkUf_Bdygnd-39" value="DELETE /subscriptions/{subscription_id}" style="ellipse;whiteSpace=wrap;html=1;" vertex="1" parent="1">
          <mxGeometry x="910" width="250" height="30" as="geometry" />
        </mxCell>
        <mxCell id="a2_5d-jZeDkUf_Bdygnd-40" value="AuthController@register" style="ellipse;whiteSpace=wrap;html=1;" vertex="1" parent="1">
          <mxGeometry x="1210" y="-1020" width="180" height="30" as="geometry" />
        </mxCell>
        <mxCell id="a2_5d-jZeDkUf_Bdygnd-41" value="AuthController@login" style="ellipse;whiteSpace=wrap;html=1;" vertex="1" parent="1">
          <mxGeometry x="1210" y="-985" width="180" height="30" as="geometry" />
        </mxCell>
        <mxCell id="a2_5d-jZeDkUf_Bdygnd-42" value="AuthController@logout" style="ellipse;whiteSpace=wrap;html=1;" vertex="1" parent="1">
          <mxGeometry x="1210" y="-950" width="180" height="30" as="geometry" />
        </mxCell>
        <mxCell id="a2_5d-jZeDkUf_Bdygnd-43" value="AuthController@resetPassword" style="ellipse;whiteSpace=wrap;html=1;" vertex="1" parent="1">
          <mxGeometry x="1210" y="-910" width="180" height="30" as="geometry" />
        </mxCell>
        <mxCell id="a2_5d-jZeDkUf_Bdygnd-44" value="" style="endArrow=classic;html=1;rounded=0;entryX=0;entryY=0.5;entryDx=0;entryDy=0;exitX=1;exitY=0.5;exitDx=0;exitDy=0;" edge="1" parent="1" source="a2_5d-jZeDkUf_Bdygnd-3" target="a2_5d-jZeDkUf_Bdygnd-40">
          <mxGeometry width="50" height="50" relative="1" as="geometry">
            <mxPoint x="1070" y="-700" as="sourcePoint" />
            <mxPoint x="1120" y="-750" as="targetPoint" />
          </mxGeometry>
        </mxCell>
        <mxCell id="a2_5d-jZeDkUf_Bdygnd-45" value="" style="endArrow=classic;html=1;rounded=0;entryX=0;entryY=0.5;entryDx=0;entryDy=0;exitX=1;exitY=0.5;exitDx=0;exitDy=0;" edge="1" parent="1">
          <mxGeometry width="50" height="50" relative="1" as="geometry">
            <mxPoint x="1160" y="-970.34" as="sourcePoint" />
            <mxPoint x="1210" y="-970.34" as="targetPoint" />
          </mxGeometry>
        </mxCell>
        <mxCell id="a2_5d-jZeDkUf_Bdygnd-46" value="" style="endArrow=classic;html=1;rounded=0;entryX=0;entryY=0.5;entryDx=0;entryDy=0;exitX=1;exitY=0.5;exitDx=0;exitDy=0;" edge="1" parent="1">
          <mxGeometry width="50" height="50" relative="1" as="geometry">
            <mxPoint x="1160" y="-935.34" as="sourcePoint" />
            <mxPoint x="1210" y="-935.34" as="targetPoint" />
          </mxGeometry>
        </mxCell>
        <mxCell id="a2_5d-jZeDkUf_Bdygnd-47" value="" style="endArrow=classic;html=1;rounded=0;entryX=0;entryY=0.5;entryDx=0;entryDy=0;exitX=1;exitY=0.5;exitDx=0;exitDy=0;" edge="1" parent="1">
          <mxGeometry width="50" height="50" relative="1" as="geometry">
            <mxPoint x="1160" y="-895.34" as="sourcePoint" />
            <mxPoint x="1210" y="-895.34" as="targetPoint" />
          </mxGeometry>
        </mxCell>
        <mxCell id="a2_5d-jZeDkUf_Bdygnd-48" value="UserController@index" style="ellipse;whiteSpace=wrap;html=1;" vertex="1" parent="1">
          <mxGeometry x="1210" y="-820" width="180" height="30" as="geometry" />
        </mxCell>
        <mxCell id="a2_5d-jZeDkUf_Bdygnd-49" value="UserController@show" style="ellipse;whiteSpace=wrap;html=1;" vertex="1" parent="1">
          <mxGeometry x="1210" y="-785" width="180" height="30" as="geometry" />
        </mxCell>
        <mxCell id="a2_5d-jZeDkUf_Bdygnd-50" value="UserController@update" style="ellipse;whiteSpace=wrap;html=1;" vertex="1" parent="1">
          <mxGeometry x="1210" y="-750" width="180" height="30" as="geometry" />
        </mxCell>
        <mxCell id="a2_5d-jZeDkUf_Bdygnd-51" value="UserController@destroy" style="ellipse;whiteSpace=wrap;html=1;" vertex="1" parent="1">
          <mxGeometry x="1210" y="-714" width="180" height="30" as="geometry" />
        </mxCell>
        <mxCell id="a2_5d-jZeDkUf_Bdygnd-52" value="" style="endArrow=classic;html=1;rounded=0;entryX=0;entryY=0.5;entryDx=0;entryDy=0;exitX=1;exitY=0.5;exitDx=0;exitDy=0;" edge="1" parent="1">
          <mxGeometry width="50" height="50" relative="1" as="geometry">
            <mxPoint x="1160" y="-805.34" as="sourcePoint" />
            <mxPoint x="1210" y="-805.34" as="targetPoint" />
          </mxGeometry>
        </mxCell>
        <mxCell id="a2_5d-jZeDkUf_Bdygnd-53" value="" style="endArrow=classic;html=1;rounded=0;entryX=0;entryY=0.5;entryDx=0;entryDy=0;exitX=1;exitY=0.5;exitDx=0;exitDy=0;" edge="1" parent="1">
          <mxGeometry width="50" height="50" relative="1" as="geometry">
            <mxPoint x="1160" y="-770.34" as="sourcePoint" />
            <mxPoint x="1210" y="-770.34" as="targetPoint" />
          </mxGeometry>
        </mxCell>
        <mxCell id="a2_5d-jZeDkUf_Bdygnd-54" value="" style="endArrow=classic;html=1;rounded=0;entryX=0;entryY=0.5;entryDx=0;entryDy=0;exitX=1;exitY=0.5;exitDx=0;exitDy=0;" edge="1" parent="1">
          <mxGeometry width="50" height="50" relative="1" as="geometry">
            <mxPoint x="1160" y="-735.34" as="sourcePoint" />
            <mxPoint x="1210" y="-735.34" as="targetPoint" />
          </mxGeometry>
        </mxCell>
        <mxCell id="a2_5d-jZeDkUf_Bdygnd-55" value="" style="endArrow=classic;html=1;rounded=0;entryX=0;entryY=0.5;entryDx=0;entryDy=0;exitX=1;exitY=0.5;exitDx=0;exitDy=0;" edge="1" parent="1">
          <mxGeometry width="50" height="50" relative="1" as="geometry">
            <mxPoint x="1160" y="-699.34" as="sourcePoint" />
            <mxPoint x="1210" y="-699.34" as="targetPoint" />
          </mxGeometry>
        </mxCell>
        <mxCell id="a2_5d-jZeDkUf_Bdygnd-56" value="ProfileController@index" style="ellipse;whiteSpace=wrap;html=1;" vertex="1" parent="1">
          <mxGeometry x="1290" y="-620" width="180" height="30" as="geometry" />
        </mxCell>
        <mxCell id="a2_5d-jZeDkUf_Bdygnd-57" value="ProfileController@store" style="ellipse;whiteSpace=wrap;html=1;" vertex="1" parent="1">
          <mxGeometry x="1290" y="-580" width="180" height="30" as="geometry" />
        </mxCell>
        <mxCell id="a2_5d-jZeDkUf_Bdygnd-58" value="ProfileController@show" style="ellipse;whiteSpace=wrap;html=1;" vertex="1" parent="1">
          <mxGeometry x="1290" y="-540" width="180" height="30" as="geometry" />
        </mxCell>
        <mxCell id="a2_5d-jZeDkUf_Bdygnd-59" value="ProfileController@update" style="ellipse;whiteSpace=wrap;html=1;" vertex="1" parent="1">
          <mxGeometry x="1290" y="-500" width="180" height="30" as="geometry" />
        </mxCell>
        <mxCell id="a2_5d-jZeDkUf_Bdygnd-60" value="ProfileController@destroy" style="ellipse;whiteSpace=wrap;html=1;" vertex="1" parent="1">
          <mxGeometry x="1290" y="-460" width="180" height="30" as="geometry" />
        </mxCell>
        <mxCell id="a2_5d-jZeDkUf_Bdygnd-61" value="ContentController@index" style="ellipse;whiteSpace=wrap;html=1;" vertex="1" parent="1">
          <mxGeometry x="1250" y="-350" width="220" height="30" as="geometry" />
        </mxCell>
        <mxCell id="a2_5d-jZeDkUf_Bdygnd-62" value="ContentController@show" style="ellipse;whiteSpace=wrap;html=1;" vertex="1" parent="1">
          <mxGeometry x="1250" y="-310" width="220" height="30" as="geometry" />
        </mxCell>
        <mxCell id="a2_5d-jZeDkUf_Bdygnd-63" value="&amp;nbsp;ContentController@recommendations" style="ellipse;whiteSpace=wrap;html=1;" vertex="1" parent="1">
          <mxGeometry x="1250" y="-270" width="220" height="30" as="geometry" />
        </mxCell>
        <mxCell id="a2_5d-jZeDkUf_Bdygnd-64" value="&lt;div&gt;&lt;span style=&quot;background-color: initial;&quot;&gt;ContentController@search&lt;/span&gt;&lt;/div&gt;" style="ellipse;whiteSpace=wrap;html=1;" vertex="1" parent="1">
          <mxGeometry x="1250" y="-230" width="220" height="30" as="geometry" />
        </mxCell>
        <mxCell id="a2_5d-jZeDkUf_Bdygnd-65" style="edgeStyle=orthogonalEdgeStyle;rounded=0;orthogonalLoop=1;jettySize=auto;html=1;exitX=1;exitY=0.5;exitDx=0;exitDy=0;entryX=0.023;entryY=0.5;entryDx=0;entryDy=0;entryPerimeter=0;" edge="1" parent="1" source="a2_5d-jZeDkUf_Bdygnd-26" target="a2_5d-jZeDkUf_Bdygnd-62">
          <mxGeometry relative="1" as="geometry" />
        </mxCell>
        <mxCell id="a2_5d-jZeDkUf_Bdygnd-66" value="SubscriptionController@index" style="ellipse;whiteSpace=wrap;html=1;" vertex="1" parent="1">
          <mxGeometry x="1220" y="-120" width="250" height="30" as="geometry" />
        </mxCell>
        <mxCell id="a2_5d-jZeDkUf_Bdygnd-67" value="SubscriptionController@store" style="ellipse;whiteSpace=wrap;html=1;" vertex="1" parent="1">
          <mxGeometry x="1220" y="-80" width="250" height="30" as="geometry" />
        </mxCell>
        <mxCell id="a2_5d-jZeDkUf_Bdygnd-68" value="SubscriptionController@update" style="ellipse;whiteSpace=wrap;html=1;" vertex="1" parent="1">
          <mxGeometry x="1220" y="-40" width="250" height="30" as="geometry" />
        </mxCell>
        <mxCell id="a2_5d-jZeDkUf_Bdygnd-69" value="SubscriptionController@destroy" style="ellipse;whiteSpace=wrap;html=1;" vertex="1" parent="1">
          <mxGeometry x="1220" width="250" height="30" as="geometry" />
        </mxCell>
      </root>
    </mxGraphModel>
  </diagram>
</mxfile>
